<svg width="114" height="38" viewBox="0 0 114 38" fill="none" xmlns="http://www.w3.org/2000/svg">
<g clip-path="url(#clip0_362_4960)">
<path d="M34.4562 36.3969H27.1192C29.3479 34.8155 30.8056 32.2157 30.8056 29.2786C30.8056 24.469 26.8989 20.5571 22.0955 20.5571C17.2921 20.5571 13.3854 24.469 13.3854 29.2786C13.3854 32.2157 14.8443 34.8155 17.0718 36.3969H1.53707C1.21812 36.3969 0.960663 36.6547 0.960663 36.974C0.960663 37.2934 1.21812 37.5512 1.53707 37.5512H18.9573C19.0418 37.5512 19.12 37.532 19.1917 37.4999C20.0999 37.8231 21.0772 38.0001 22.0955 38.0001C23.0574 38.0001 23.9823 37.8077 24.8481 37.5512H34.4562C34.7751 37.5512 35.0326 37.2934 35.0326 36.974C35.0326 36.6547 34.7751 36.3969 34.4562 36.3969ZM14.5382 29.2786C14.5382 25.1064 17.9287 21.7114 22.0955 21.7114C26.2623 21.7114 29.6528 25.1064 29.6528 29.2786C29.6528 33.4508 26.2623 36.8458 22.0955 36.8458C17.9287 36.8458 14.5382 33.4508 14.5382 29.2786Z" fill="#EEEFF0"/>
<path d="M111.31 36.3969H94.1102C96.339 34.8155 97.7966 32.2157 97.7966 29.2786C97.7966 24.469 93.8899 20.5571 89.0865 20.5571C84.2831 20.5571 80.3764 24.469 80.3764 29.2786C80.3764 32.2157 81.8354 34.8155 84.0628 36.3969H76.8539C76.535 36.3969 76.2775 36.6547 76.2775 36.974C76.2775 37.2934 76.535 37.5512 76.8539 37.5512H86.3339C87.1998 37.841 88.1246 38.0001 89.0865 38.0001C90.0485 38.0001 91.0348 37.8308 91.925 37.5217C91.9801 37.5384 92.0364 37.5512 92.0966 37.5512H111.31C111.629 37.5512 111.887 37.2934 111.887 36.974C111.887 36.6547 111.629 36.3969 111.31 36.3969ZM86.7322 36.4674C86.6759 36.4366 86.6157 36.4161 86.5503 36.4059C83.6273 35.3593 81.5292 32.5607 81.5292 29.2786C81.5292 25.1064 84.9198 21.7114 89.0865 21.7114C93.2533 21.7114 96.6438 25.1064 96.6438 29.2786C96.6438 33.4508 93.2533 36.8458 89.0865 36.8458C88.2642 36.8458 87.4739 36.7124 86.7322 36.4674Z" fill="#EEEFF0"/>
<path d="M46.7528 15.3628H41.1169C40.7979 15.3628 40.5405 15.6206 40.5405 15.9399C40.5405 16.2593 40.7979 16.5171 41.1169 16.5171H46.7528C47.0718 16.5171 47.3292 16.2593 47.3292 15.9399C47.3292 15.6206 47.0718 15.3628 46.7528 15.3628Z" fill="#EEEFF0"/>
<path d="M2.49775 10.2325H12.4888C13.8657 10.2325 14.9865 9.11024 14.9865 7.73148C14.9865 6.35272 13.8657 5.23047 12.4888 5.23047H2.49775C1.12079 5.23047 0 6.35272 0 7.73276C0 9.11281 1.12079 10.2338 2.49775 10.2338V10.2325ZM2.49775 6.38478H12.4888C13.2304 6.38478 13.8337 6.98887 13.8337 7.73148C13.8337 8.47409 13.2304 9.07818 12.4888 9.07818H2.49775C1.75611 9.07818 1.15281 8.47409 1.15281 7.73148C1.15281 6.98887 1.75611 6.38478 2.49775 6.38478Z" fill="#EEEFF0"/>
<mask id="path-5-inside-1_362_4960" fill="white">
<path d="M111.822 20.3852V15.6833C111.822 14.334 110.75 13.231 109.414 13.1835C108.638 12.954 102.212 11.0853 94.6956 10.0451C88.4704 9.1832 82.4579 9.08958 80.1612 9.08958C79.4132 9.08958 78.993 9.09855 78.9764 9.09984C78.8701 9.1024 78.7676 9.13447 78.6779 9.1909L76.6746 10.4786L60.6275 0.383489C60.2291 0.132105 59.7693 0 59.3005 0C58.4346 0 57.6443 0.437357 57.1832 1.17099L56.2968 2.5831C55.942 3.14871 55.828 3.81949 55.9766 4.46976C56.1251 5.1213 56.5184 5.67537 57.0832 6.03065L65.1901 11.1301H48.5461V8.50088C48.5461 7.12211 47.4253 5.99986 46.0483 5.99986H42.5899C41.2129 5.99986 40.0921 7.12211 40.0921 8.50088V11.1301H34.8404V9.39868C34.8404 8.01991 33.7197 6.89766 32.3427 6.89766H18.8933C17.5163 6.89766 16.3955 8.01991 16.3955 9.39868V11.1301H5.25168C4.00024 11.1301 2.7821 12.0472 2.22107 13.4118C2.21595 13.4234 2.2121 13.4349 2.20826 13.4452L0.415004 18.7242C0.393228 18.7884 0.382981 18.8551 0.384262 18.923L0.640442 30.311C0.644284 31.6872 1.76379 32.8056 3.13819 32.8056H11.9008H11.9034C12.2223 32.8056 12.4785 32.5478 12.4785 32.2284C12.4785 32.2015 12.4759 32.1746 12.4721 32.1489C12.4273 31.0562 12.4247 29.8749 12.4247 28.6244V28.2897C12.4247 23.1401 16.5082 19.4027 22.1301 19.4027C27.2447 19.4027 30.8773 22.7618 31.8431 28.3871C32.0686 29.7031 32.2146 31.2114 32.2146 32.2284C32.2146 32.5478 32.4721 32.8056 32.791 32.8056H78.7663C79.0853 32.8056 79.3427 32.5478 79.3427 32.2284C79.3427 32.1951 79.3402 32.1617 79.335 32.1297C79.271 31.2614 79.2787 30.3238 79.2876 29.3324C79.2902 28.9887 79.2928 28.6411 79.2928 28.2884C79.2928 23.2376 83.3737 19.572 88.9956 19.572C94.6174 19.572 98.0938 22.9362 98.7009 28.3525C98.788 29.1285 98.8559 29.889 98.9225 30.6239C98.9751 31.2037 99.0237 31.7513 99.0801 32.2861C99.1108 32.5799 99.358 32.803 99.6539 32.803H109.325C110.702 32.803 111.822 31.6808 111.822 30.302V25.7284C113.05 25.5706 114 24.5176 114 23.2479V22.8631C114 21.5921 113.05 20.5404 111.822 20.3826V20.3852ZM60.6518 2.27015L60.8798 1.90462L75.2336 10.9352C74.5355 11.1058 73.6735 11.3033 72.9498 11.4303L61.0809 4.12603C60.452 3.73228 60.2599 2.89989 60.6531 2.27015H60.6518ZM41.2449 8.50088C41.2449 7.75827 41.8482 7.15418 42.5899 7.15418H46.0483C46.7899 7.15418 47.3933 7.75827 47.3933 8.50088V11.1301H41.2449V8.50088ZM17.5483 9.39868C17.5483 8.65607 18.1516 8.05198 18.8933 8.05198H32.3427C33.0843 8.05198 33.6876 8.65607 33.6876 9.39868V11.1301H17.5483V9.39868ZM3.29318 13.8351C3.67489 12.9219 4.47801 12.2845 5.25168 12.2845H5.66413C4.65862 17.3019 2.66426 18.192 1.76763 18.3292L3.29446 13.8351H3.29318ZM112.847 23.2504C112.847 23.993 112.244 24.5971 111.502 24.5971H111.246C110.927 24.5971 110.67 24.8549 110.67 25.1743V30.3046C110.67 31.0472 110.066 31.6513 109.325 31.6513H100.175C100.139 31.2857 100.106 30.9112 100.072 30.5226C100.005 29.7813 99.9357 29.0143 99.8473 28.2255C99.5156 25.2679 98.3269 22.79 96.4081 21.0598C94.4932 19.3322 91.9301 18.419 88.9956 18.419C82.9817 18.419 78.5473 22.2141 78.1694 27.547H71.8584C71.5395 27.547 71.282 27.8048 71.282 28.1242C71.282 28.4436 71.5395 28.7014 71.8584 28.7014H78.1387C78.1387 28.9104 78.1361 29.1182 78.1348 29.3234C78.1284 30.1327 78.122 30.9061 78.1528 31.6513H33.3559C33.3149 30.6291 33.1766 29.3375 32.9793 28.1922C32.4721 25.241 31.2475 22.7669 29.4363 21.0342C27.5316 19.2116 25.0044 18.2484 22.1314 18.2484C19.2583 18.2484 16.4685 19.2232 14.4793 20.9944C12.5938 22.6733 11.482 24.9781 11.3014 27.547H5.25168C4.93273 27.547 4.67527 27.8048 4.67527 28.1242C4.67527 28.4436 4.93273 28.7014 5.25168 28.7014H11.2719C11.2719 29.7325 11.277 30.7176 11.3039 31.6513H3.13819C2.39655 31.6513 1.79325 31.0472 1.79325 30.3046V30.2917L1.59855 21.6472H7.94157C8.26051 21.6472 8.51797 21.3894 8.51797 21.0701C8.51797 20.7507 8.26051 20.4929 7.94157 20.4929H1.57294L1.55116 19.5028C2.67195 19.4694 5.61033 18.7422 6.83871 12.2845H36.9501C36.4928 13.9262 36.047 18.4139 39.5913 28.3397C39.6758 28.5757 39.8974 28.7232 40.1344 28.7232C40.1984 28.7232 40.2638 28.7129 40.3291 28.6898C40.6288 28.5821 40.7851 28.2525 40.6775 27.9523C36.8015 17.1005 37.8454 13.1015 38.1605 12.2857H67.0973C67.3919 12.7462 68.9226 15.809 67.2331 27.724C67.1883 28.0396 67.4073 28.332 67.7224 28.3769C67.7493 28.3807 67.7775 28.3833 67.8044 28.3833C68.0862 28.3833 68.3334 28.1755 68.3744 27.8869C70.3239 14.1326 68.1131 11.6329 67.8543 11.3931L57.6981 5.05461C57.3945 4.86351 57.1819 4.56467 57.1025 4.21453C57.023 3.86439 57.0832 3.5027 57.2754 3.19873L58.1618 1.78662C58.409 1.39159 58.8355 1.1556 59.3018 1.1556C59.5106 1.1556 59.7142 1.2069 59.8999 1.30053L59.6758 1.66093C58.9457 2.83063 59.303 4.37613 60.4751 5.10976L72.5194 12.523C72.6142 12.5807 72.7179 12.609 72.8204 12.609C72.8332 12.609 72.846 12.6077 72.8575 12.6064C72.8665 12.6064 72.8742 12.609 72.8831 12.609C72.9152 12.609 72.9472 12.6064 72.9792 12.6013C74.5265 12.3435 76.7348 11.7483 76.8283 11.724C76.8296 11.724 76.8309 11.724 76.8322 11.7227C76.8655 11.7137 76.8975 11.7009 76.9282 11.6855C76.9372 11.6817 76.9449 11.6765 76.9538 11.6714C76.9654 11.665 76.9782 11.6598 76.9897 11.6522L79.1634 10.2554C79.3491 10.2529 79.6911 10.249 80.1625 10.249C82.4348 10.249 88.3846 10.3414 94.538 11.193C102.423 12.2845 109.092 14.2955 109.158 14.3161C109.209 14.3314 109.262 14.3391 109.316 14.3404L108.127 16.6195C107.029 16.1553 101.347 13.9531 90.8554 13.2528C90.5391 13.2323 90.2637 13.4721 90.2419 13.7902C90.2201 14.1083 90.4609 14.3827 90.7786 14.4045C97.6724 14.865 102.496 16.0065 105.216 16.8286C105.161 16.8504 105.105 16.8709 105.05 16.8966C103.744 17.484 102.738 18.714 102.061 20.5558C101.951 20.8546 102.103 21.1868 102.403 21.2971C102.468 21.3215 102.536 21.333 102.601 21.333C102.836 21.333 103.056 21.1881 103.142 20.9546C103.704 19.4245 104.5 18.4164 105.505 17.9573C106.347 17.5725 107.146 17.6738 107.531 17.7623L105.464 21.7267C105.317 22.0089 105.426 22.3578 105.709 22.5053C105.793 22.5502 105.885 22.5707 105.975 22.5707C106.183 22.5707 106.384 22.4578 106.486 22.2603L110.362 14.8291C110.556 15.0625 110.672 15.3613 110.672 15.6871V20.3852C110.645 20.4095 110.62 20.4352 110.597 20.466L108.675 22.967C108.481 23.2197 108.528 23.5826 108.78 23.7763C108.885 23.8571 109.008 23.8956 109.131 23.8956C109.304 23.8956 109.475 23.8186 109.589 23.6698L111.24 21.5215C111.24 21.5215 111.246 21.5215 111.249 21.5215H111.505C112.246 21.5215 112.85 22.1256 112.85 22.8682V23.253L112.847 23.2504Z"/>
</mask>
<path d="M111.822 20.3852V15.6833C111.822 14.334 110.75 13.231 109.414 13.1835C108.638 12.954 102.212 11.0853 94.6956 10.0451C88.4704 9.1832 82.4579 9.08958 80.1612 9.08958C79.4132 9.08958 78.993 9.09855 78.9764 9.09984C78.8701 9.1024 78.7676 9.13447 78.6779 9.1909L76.6746 10.4786L60.6275 0.383489C60.2291 0.132105 59.7693 0 59.3005 0C58.4346 0 57.6443 0.437357 57.1832 1.17099L56.2968 2.5831C55.942 3.14871 55.828 3.81949 55.9766 4.46976C56.1251 5.1213 56.5184 5.67537 57.0832 6.03065L65.1901 11.1301H48.5461V8.50088C48.5461 7.12211 47.4253 5.99986 46.0483 5.99986H42.5899C41.2129 5.99986 40.0921 7.12211 40.0921 8.50088V11.1301H34.8404V9.39868C34.8404 8.01991 33.7197 6.89766 32.3427 6.89766H18.8933C17.5163 6.89766 16.3955 8.01991 16.3955 9.39868V11.1301H5.25168C4.00024 11.1301 2.7821 12.0472 2.22107 13.4118C2.21595 13.4234 2.2121 13.4349 2.20826 13.4452L0.415004 18.7242C0.393228 18.7884 0.382981 18.8551 0.384262 18.923L0.640442 30.311C0.644284 31.6872 1.76379 32.8056 3.13819 32.8056H11.9008H11.9034C12.2223 32.8056 12.4785 32.5478 12.4785 32.2284C12.4785 32.2015 12.4759 32.1746 12.4721 32.1489C12.4273 31.0562 12.4247 29.8749 12.4247 28.6244V28.2897C12.4247 23.1401 16.5082 19.4027 22.1301 19.4027C27.2447 19.4027 30.8773 22.7618 31.8431 28.3871C32.0686 29.7031 32.2146 31.2114 32.2146 32.2284C32.2146 32.5478 32.4721 32.8056 32.791 32.8056H78.7663C79.0853 32.8056 79.3427 32.5478 79.3427 32.2284C79.3427 32.1951 79.3402 32.1617 79.335 32.1297C79.271 31.2614 79.2787 30.3238 79.2876 29.3324C79.2902 28.9887 79.2928 28.6411 79.2928 28.2884C79.2928 23.2376 83.3737 19.572 88.9956 19.572C94.6174 19.572 98.0938 22.9362 98.7009 28.3525C98.788 29.1285 98.8559 29.889 98.9225 30.6239C98.9751 31.2037 99.0237 31.7513 99.0801 32.2861C99.1108 32.5799 99.358 32.803 99.6539 32.803H109.325C110.702 32.803 111.822 31.6808 111.822 30.302V25.7284C113.05 25.5706 114 24.5176 114 23.2479V22.8631C114 21.5921 113.05 20.5404 111.822 20.3826V20.3852ZM60.6518 2.27015L60.8798 1.90462L75.2336 10.9352C74.5355 11.1058 73.6735 11.3033 72.9498 11.4303L61.0809 4.12603C60.452 3.73228 60.2599 2.89989 60.6531 2.27015H60.6518ZM41.2449 8.50088C41.2449 7.75827 41.8482 7.15418 42.5899 7.15418H46.0483C46.7899 7.15418 47.3933 7.75827 47.3933 8.50088V11.1301H41.2449V8.50088ZM17.5483 9.39868C17.5483 8.65607 18.1516 8.05198 18.8933 8.05198H32.3427C33.0843 8.05198 33.6876 8.65607 33.6876 9.39868V11.1301H17.5483V9.39868ZM3.29318 13.8351C3.67489 12.9219 4.47801 12.2845 5.25168 12.2845H5.66413C4.65862 17.3019 2.66426 18.192 1.76763 18.3292L3.29446 13.8351H3.29318ZM112.847 23.2504C112.847 23.993 112.244 24.5971 111.502 24.5971H111.246C110.927 24.5971 110.67 24.8549 110.67 25.1743V30.3046C110.67 31.0472 110.066 31.6513 109.325 31.6513H100.175C100.139 31.2857 100.106 30.9112 100.072 30.5226C100.005 29.7813 99.9357 29.0143 99.8473 28.2255C99.5156 25.2679 98.3269 22.79 96.4081 21.0598C94.4932 19.3322 91.9301 18.419 88.9956 18.419C82.9817 18.419 78.5473 22.2141 78.1694 27.547H71.8584C71.5395 27.547 71.282 27.8048 71.282 28.1242C71.282 28.4436 71.5395 28.7014 71.8584 28.7014H78.1387C78.1387 28.9104 78.1361 29.1182 78.1348 29.3234C78.1284 30.1327 78.122 30.9061 78.1528 31.6513H33.3559C33.3149 30.6291 33.1766 29.3375 32.9793 28.1922C32.4721 25.241 31.2475 22.7669 29.4363 21.0342C27.5316 19.2116 25.0044 18.2484 22.1314 18.2484C19.2583 18.2484 16.4685 19.2232 14.4793 20.9944C12.5938 22.6733 11.482 24.9781 11.3014 27.547H5.25168C4.93273 27.547 4.67527 27.8048 4.67527 28.1242C4.67527 28.4436 4.93273 28.7014 5.25168 28.7014H11.2719C11.2719 29.7325 11.277 30.7176 11.3039 31.6513H3.13819C2.39655 31.6513 1.79325 31.0472 1.79325 30.3046V30.2917L1.59855 21.6472H7.94157C8.26051 21.6472 8.51797 21.3894 8.51797 21.0701C8.51797 20.7507 8.26051 20.4929 7.94157 20.4929H1.57294L1.55116 19.5028C2.67195 19.4694 5.61033 18.7422 6.83871 12.2845H36.9501C36.4928 13.9262 36.047 18.4139 39.5913 28.3397C39.6758 28.5757 39.8974 28.7232 40.1344 28.7232C40.1984 28.7232 40.2638 28.7129 40.3291 28.6898C40.6288 28.5821 40.7851 28.2525 40.6775 27.9523C36.8015 17.1005 37.8454 13.1015 38.1605 12.2857H67.0973C67.3919 12.7462 68.9226 15.809 67.2331 27.724C67.1883 28.0396 67.4073 28.332 67.7224 28.3769C67.7493 28.3807 67.7775 28.3833 67.8044 28.3833C68.0862 28.3833 68.3334 28.1755 68.3744 27.8869C70.3239 14.1326 68.1131 11.6329 67.8543 11.3931L57.6981 5.05461C57.3945 4.86351 57.1819 4.56467 57.1025 4.21453C57.023 3.86439 57.0832 3.5027 57.2754 3.19873L58.1618 1.78662C58.409 1.39159 58.8355 1.1556 59.3018 1.1556C59.5106 1.1556 59.7142 1.2069 59.8999 1.30053L59.6758 1.66093C58.9457 2.83063 59.303 4.37613 60.4751 5.10976L72.5194 12.523C72.6142 12.5807 72.7179 12.609 72.8204 12.609C72.8332 12.609 72.846 12.6077 72.8575 12.6064C72.8665 12.6064 72.8742 12.609 72.8831 12.609C72.9152 12.609 72.9472 12.6064 72.9792 12.6013C74.5265 12.3435 76.7348 11.7483 76.8283 11.724C76.8296 11.724 76.8309 11.724 76.8322 11.7227C76.8655 11.7137 76.8975 11.7009 76.9282 11.6855C76.9372 11.6817 76.9449 11.6765 76.9538 11.6714C76.9654 11.665 76.9782 11.6598 76.9897 11.6522L79.1634 10.2554C79.3491 10.2529 79.6911 10.249 80.1625 10.249C82.4348 10.249 88.3846 10.3414 94.538 11.193C102.423 12.2845 109.092 14.2955 109.158 14.3161C109.209 14.3314 109.262 14.3391 109.316 14.3404L108.127 16.6195C107.029 16.1553 101.347 13.9531 90.8554 13.2528C90.5391 13.2323 90.2637 13.4721 90.2419 13.7902C90.2201 14.1083 90.4609 14.3827 90.7786 14.4045C97.6724 14.865 102.496 16.0065 105.216 16.8286C105.161 16.8504 105.105 16.8709 105.05 16.8966C103.744 17.484 102.738 18.714 102.061 20.5558C101.951 20.8546 102.103 21.1868 102.403 21.2971C102.468 21.3215 102.536 21.333 102.601 21.333C102.836 21.333 103.056 21.1881 103.142 20.9546C103.704 19.4245 104.5 18.4164 105.505 17.9573C106.347 17.5725 107.146 17.6738 107.531 17.7623L105.464 21.7267C105.317 22.0089 105.426 22.3578 105.709 22.5053C105.793 22.5502 105.885 22.5707 105.975 22.5707C106.183 22.5707 106.384 22.4578 106.486 22.2603L110.362 14.8291C110.556 15.0625 110.672 15.3613 110.672 15.6871V20.3852C110.645 20.4095 110.62 20.4352 110.597 20.466L108.675 22.967C108.481 23.2197 108.528 23.5826 108.78 23.7763C108.885 23.8571 109.008 23.8956 109.131 23.8956C109.304 23.8956 109.475 23.8186 109.589 23.6698L111.24 21.5215C111.24 21.5215 111.246 21.5215 111.249 21.5215H111.505C112.246 21.5215 112.85 22.1256 112.85 22.8682V23.253L112.847 23.2504Z" fill="#EEEFF0" stroke="white" stroke-width="2" mask="url(#path-5-inside-1_362_4960)"/>
<path d="M22.0955 23.9561C19.1648 23.9561 16.7798 26.3442 16.7798 29.2787C16.7798 32.2132 19.1648 34.6014 22.0955 34.6014C25.0262 34.6014 27.4112 32.2132 27.4112 29.2787C27.4112 26.3442 25.0262 23.9561 22.0955 23.9561V23.9561ZM24.5881 29.8559H26.2251C26.1355 30.4972 25.8626 31.2103 25.4528 31.7682L24.282 30.5818C24.0566 30.3561 23.6915 30.3497 23.4674 30.5741C23.2419 30.7999 23.2419 31.1615 23.4674 31.386L24.6317 32.5685C24.0783 33.0007 23.4405 33.2945 22.6719 33.4009V31.7092C22.6719 31.3898 22.4145 31.132 22.0955 31.132C21.7766 31.132 21.5191 31.3898 21.5191 31.7092V33.4099C20.8787 33.315 20.1332 33.029 19.5709 32.6031L20.7788 31.4027C21.0042 31.1769 21.008 30.8114 20.7839 30.5869C20.5584 30.3612 20.1959 30.3612 19.9705 30.5869L18.7729 31.8015C18.3502 31.2411 18.0658 30.4972 17.9697 29.8559H19.6464C19.9654 29.8559 20.2228 29.5981 20.2228 29.2787C20.2228 28.9594 19.9654 28.7016 19.6464 28.7016H17.9761C18.0812 27.932 18.3694 27.31 18.7921 26.7585L19.9513 27.9128C20.064 28.0257 20.2113 28.0782 20.3586 28.0782C20.5059 28.0782 20.6532 28.0205 20.7659 27.9077C20.9914 27.6819 20.9914 27.3164 20.7659 27.0907L19.6093 25.9351C20.1588 25.5246 20.8774 25.2489 21.5178 25.1501V26.7623C21.5178 27.0817 21.7753 27.3395 22.0942 27.3395C22.4132 27.3395 22.6706 27.0817 22.6706 26.7623V25.1514C23.4392 25.2502 24.0271 25.5272 24.5728 25.9338L23.4417 27.0676C23.2163 27.2933 23.2176 27.6588 23.4417 27.8833C23.5545 27.9962 23.7018 28.0526 23.8503 28.0526C23.9989 28.0526 24.145 27.9962 24.2577 27.8833L25.3951 26.7739C25.8114 27.3177 26.0983 27.932 26.2072 28.7016H24.5843C24.2654 28.7016 24.0079 28.9594 24.0079 29.2787C24.0079 29.5981 24.2654 29.8559 24.5843 29.8559H24.5881Z" fill="#EEEFF0"/>
<path d="M89.0865 23.9561C86.1558 23.9561 83.7708 26.3442 83.7708 29.2787C83.7708 32.2132 86.1558 34.6014 89.0865 34.6014C92.0172 34.6014 94.4022 32.2132 94.4022 29.2787C94.4022 26.3442 92.0172 23.9561 89.0865 23.9561V23.9561ZM91.5791 29.8559H93.2161C93.1265 30.4972 92.8536 31.2103 92.4438 31.7682L91.273 30.5818C91.0476 30.3561 90.6825 30.3497 90.4584 30.5741C90.2329 30.7999 90.2329 31.1615 90.4584 31.386L91.6227 32.5685C91.0693 33.0007 90.4315 33.2945 89.6629 33.4009V31.7092C89.6629 31.3898 89.4055 31.132 89.0865 31.132C88.7676 31.132 88.5101 31.3898 88.5101 31.7092V33.4099C87.8697 33.315 87.1242 33.029 86.5619 32.6031L87.7697 31.4027C87.9952 31.1769 87.999 30.8114 87.7749 30.5869C87.5494 30.3612 87.1869 30.3612 86.9615 30.5869L85.7639 31.8015C85.3412 31.2411 85.0568 30.4972 84.9607 29.8559H86.6374C86.9564 29.8559 87.2138 29.5981 87.2138 29.2787C87.2138 28.9594 86.9564 28.7016 86.6374 28.7016H84.9671C85.0722 27.932 85.3604 27.31 85.7831 26.7585L86.9423 27.9128C87.055 28.0257 87.2023 28.0782 87.3496 28.0782C87.4969 28.0782 87.6442 28.0205 87.7569 27.9077C87.9824 27.6819 87.9824 27.3164 87.7569 27.0907L86.6003 25.9351C87.1498 25.5246 87.8684 25.2489 88.5088 25.1501V26.7623C88.5088 27.0817 88.7663 27.3395 89.0852 27.3395C89.4042 27.3395 89.6616 27.0817 89.6616 26.7623V25.1514C90.4302 25.2502 91.0181 25.5272 91.5638 25.9338L90.4327 27.0676C90.2073 27.2933 90.2086 27.6588 90.4327 27.8833C90.5455 27.9962 90.6928 28.0526 90.8413 28.0526C90.9899 28.0526 91.136 27.9962 91.2487 27.8833L92.3861 26.7739C92.8024 27.3177 93.0893 27.932 93.1982 28.7016H91.5753C91.2564 28.7016 90.9989 28.9594 90.9989 29.2787C90.9989 29.5981 91.2564 29.8559 91.5753 29.8559H91.5791Z" fill="#EEEFF0"/>
</g>
<defs>
<clipPath id="clip0_362_4960">
<rect width="114" height="38" fill="white"/>
</clipPath>
</defs>
</svg>
