<svg width="20" height="20" viewBox="0 0 20 20" fill="none" xmlns="http://www.w3.org/2000/svg">
<path d="M2.74577 13.0908C3.07127 13.4162 3.59887 13.4161 3.92425 13.0906C4.24963 12.7651 4.24955 12.2375 3.92405 11.9121L2.01189 10.0006L4.90245 7.11006C6.64724 5.36528 9.12414 4.65437 11.4945 5.1538C11.9448 5.24868 12.3868 4.96053 12.4817 4.51019C12.5766 4.05986 12.2884 3.61788 11.8381 3.523C8.92216 2.90865 5.87129 3.78424 3.72394 5.93159L0.244064 9.41146C-0.0813936 9.73692 -0.0813546 10.2646 0.244181 10.59L2.74577 13.0908Z" fill="#FFF9F9"/>
<path d="M19.7566 9.41073L17.255 6.91C16.9295 6.58462 16.4019 6.5847 16.0765 6.91019C15.7511 7.23569 15.7512 7.76329 16.0767 8.08867L17.9888 10.0002L15.0983 12.8907C13.3535 14.6355 10.8766 15.3464 8.50624 14.847C8.0559 14.7521 7.61393 15.0403 7.51905 15.4906C7.42417 15.9409 7.71232 16.3829 8.16266 16.4778C11.0786 17.0921 14.1294 16.2165 16.2768 14.0692L19.7567 10.5893C20.0821 10.2638 20.0821 9.73611 19.7566 9.41073Z" fill="#FFF9F9"/>
<path d="M5.83398 10.0005C5.83398 10.4607 6.20706 10.8338 6.66728 10.8338C7.12749 10.8338 7.50057 10.4607 7.50057 10.0005C7.50057 8.61994 8.61994 7.50057 10.0005 7.50057C10.4607 7.50057 10.8338 7.12749 10.8338 6.66728C10.8338 6.20706 10.4607 5.83398 10.0005 5.83398C7.6995 5.83395 5.83398 7.69947 5.83398 10.0005Z" fill="#FFF9F9"/>
<path d="M12.5002 10.0003C12.5002 11.3809 11.3808 12.5002 10.0003 12.5002C9.54007 12.5002 9.16699 12.8733 9.16699 13.3335C9.16699 13.7937 9.54007 14.1668 10.0003 14.1668C12.3013 14.1668 14.1668 12.3013 14.1668 10.0003C14.1668 9.54006 13.7937 9.16699 13.3335 9.16699C12.8733 9.16699 12.5002 9.5401 12.5002 10.0003Z" fill="#FFF9F9"/>
<path d="M19.7552 0.244064C19.4298 -0.0813546 18.9022 -0.0813546 18.5767 0.244064L0.244064 18.5767C-0.0813546 18.9022 -0.0813546 19.4298 0.244064 19.7552C0.569482 20.0806 1.09712 20.0806 1.42254 19.7552L19.7552 1.42254C20.0807 1.09712 20.0807 0.569482 19.7552 0.244064Z" fill="#FFF9F9"/>
</svg>
