<svg width="113" height="79" viewBox="0 0 113 79" fill="none" xmlns="http://www.w3.org/2000/svg">
<path d="M69.5722 2.20459H89.7723V65.2286H69.5722V2.20459Z" fill="white" fill-opacity="0.5"/>
<path fill-rule="evenodd" clip-rule="evenodd" d="M87.783 4.79327C87.456 5.01729 87.2292 5.17266 87.1787 5.12225C87.1139 5.05741 87.3084 4.79805 87.503 4.66837C87.0491 4.73321 85.5578 5.77065 84.261 7.52131C84.2826 7.28357 84.65 6.54872 85.039 6.03C84.7797 6.09484 84.3258 6.41904 84.0664 6.80808C83.7855 7.22944 82.7048 8.94778 82.4455 9.72585C82.5103 9.33682 82.7567 8.37719 82.9642 7.91035C82.3158 8.62358 80.5651 10.7633 80.5651 15.7559C80.5651 20.2169 80.8029 23.018 80.9541 23.6663L80.5003 22.6938C80.5219 22.456 80.5651 21.8508 80.5651 21.3321C80.5651 20.8134 80.5219 20.2082 80.5003 19.9705C80.457 20.0786 80.3576 20.3077 80.3058 20.3595C80.3109 20.2199 80.321 20.0692 80.3317 19.9109C80.3655 19.4074 80.4044 18.8273 80.3058 18.2847C80.2193 18.436 79.9945 18.7645 79.787 18.8682C79.9383 18.6089 80.1761 17.6363 80.2409 16.923C80.3058 16.2098 80.2409 15.2372 80.0464 14.6537C79.9167 15.0427 79.6574 15.5614 79.2683 15.7559C79.398 15.4966 79.6444 14.6926 79.5925 13.5514C79.5406 12.4102 79.3548 11.5197 79.2683 11.2172C79.2683 11.9304 79.0219 13.5514 78.0364 14.3295C78.2957 13.8972 78.8144 12.5918 78.8144 10.8281C78.8144 9.06449 78.339 8.06164 78.1012 7.78067C78.058 8.14809 77.9067 9.05152 77.6473 9.72585C77.388 10.4002 77.1502 10.8281 77.0638 10.9578C77.1718 10.5904 77.4009 9.59618 77.4528 8.55874C77.5047 7.52131 77.4312 6.65678 77.388 6.3542C77.2367 6.52711 76.8952 6.95072 76.7396 7.26195C76.7396 7.11066 76.7785 6.7173 76.9341 6.3542C77.1286 5.90032 77.1286 5.64097 77.1286 5.38161C77.1286 5.12225 76.4802 5.77065 75.8967 6.93776H75.5725C75.5509 6.59195 75.5465 5.74471 75.7021 5.12225C75.7957 4.74794 75.8743 4.52369 75.9306 4.36287C75.9914 4.1894 76.0263 4.08973 76.0263 3.95514C76.0263 3.69578 75.3779 3.69578 74.7296 5.51129C74.2108 6.96369 74.8592 8.45068 75.2483 9.01262L74.5999 8.4939L74.4702 6.48388C74.3837 6.3542 74.1849 5.97813 74.0812 5.51129C73.9515 4.92773 73.8866 4.47386 73.8866 4.14966C73.8866 4.07933 73.8897 4.0151 73.8925 3.95631C73.9026 3.74411 73.9093 3.60281 73.757 3.50126C73.5624 3.37158 73.3031 3.63094 73.1734 4.01998C73.0437 4.40902 72.7195 5.57613 73.2382 6.6784L72.5899 6.74324C72.5466 6.57033 72.4472 6.21155 72.3953 6.15968C72.3305 6.09484 72.2008 5.96516 72.2008 6.3542C72.2008 6.66543 72.244 6.95937 72.2657 7.06744L75.767 18.6089C75.9183 18.7385 76.4024 19.0238 77.1286 19.1276C76.8693 19.2573 76.1171 19.4518 75.1834 19.1924L70.3853 24.5741L70.515 25.1577H71.0337L71.7469 24.3147C71.5956 24.6173 71.2931 25.3133 71.2931 25.6764C71.2931 26.0395 72.4169 25.698 72.9789 25.4819C73.1302 25.1577 73.4717 24.4704 73.6273 24.3147C73.7829 24.1591 73.3895 25.0712 73.1734 25.5467L75.5076 25.2873C75.5941 25.0064 75.7929 24.4315 75.8967 24.3796C76.0004 24.3277 75.767 25.0496 75.6373 25.417L78.0364 25.2873C78.2093 25.0064 78.5681 24.4315 78.6199 24.3796C78.6718 24.3277 78.8144 24.4012 78.8793 24.4444C78.8361 24.6389 78.7755 25.0799 78.8793 25.2873C78.983 25.4948 74.427 31.5119 72.136 34.4945C72.2008 34.9484 72.2657 36.1026 72.0063 37.0881C72.3444 36.6559 73.0512 35.506 73.1734 34.3649L73.5624 34.5594C73.5841 34.862 73.6013 35.5968 73.4976 36.1155C73.6273 36.0507 73.9385 35.6487 74.146 34.5594L74.5999 34.7539C74.5783 34.862 74.5869 35.0781 74.7944 35.0781C75.0019 35.0781 75.2699 35.2078 75.378 35.2726C74.7944 36.6775 73.6013 39.7595 73.4976 40.8488C73.3939 41.9381 73.4976 42.9453 73.5624 43.3127C73.9083 42.6427 74.8074 41.0822 75.1186 40.7191C74.7944 41.6917 73.9126 44.6484 73.757 45.8415L70.3853 52.9738L73.4976 50.7044H73.757C73.6273 51.9148 73.4457 54.6856 73.757 56.0861C73.8866 55.5025 74.3405 54.0631 75.1186 52.9738C74.9889 54.0977 74.8074 56.6567 75.1186 57.9016C75.1618 57.6855 75.3001 57.2143 75.5076 57.0587C75.6589 57.6206 76.0782 58.9261 76.5451 59.6523C76.4586 59.4578 76.3376 58.952 76.5451 58.4852C77.1718 59.2632 78.5032 60.9102 78.8144 61.2733C78.7496 61.1004 78.6588 60.7286 78.8144 60.6249C79.3332 61.1436 80.4225 62.2848 80.63 62.6997C80.6516 62.4836 80.6429 61.9346 80.4354 61.4678C80.5435 61.5758 80.7726 61.8309 80.8245 61.9865C80.8461 61.6407 80.7985 60.7675 80.4354 60.0413C80.6083 60.1062 80.9801 60.2747 81.0838 60.4303C80.9325 59.8468 80.4743 58.4981 79.8519 57.7719C80.3058 58.0961 81.3562 58.7964 81.9267 59.0039C81.7322 58.7877 81.1876 58.0313 81.0838 57.7719C81.3216 57.8368 81.9916 58.2777 82.2509 58.4852C82.2293 58.161 82.0824 57.3829 81.6674 56.8642C81.2524 56.3455 81.019 55.6971 80.9541 55.4377C81.408 55.8484 82.3547 56.7734 82.5103 57.1884C82.1429 55.9564 80.9023 53.1294 79.9167 52.1957C80.8245 52.8225 82.7567 54.3095 83.2235 55.2432C83.0506 54.4003 82.4973 52.4032 81.6674 51.1583C80.63 49.6022 79.5925 47.657 79.5277 47.3976C80.6083 48.6296 82.8864 51.3139 83.3532 52.1957C82.9858 50.9638 82.0953 48.2794 81.4729 47.3976C81.8835 47.9163 82.8604 49.2261 83.4829 50.3154C82.9426 48.5647 81.5377 44.5187 80.2409 42.3401C80.9541 43.2047 82.64 45.4524 83.6774 47.5273C83.2668 45.6037 82.2509 41.3935 81.4729 39.9411C81.9484 40.6327 83.1068 42.6384 83.9368 45.1282C83.8071 43.9611 83.418 41.173 82.8993 39.3575L83.4829 39.8114C83.6126 40.222 83.9497 41.2249 84.261 41.9511C84.1745 41.3675 84.0146 40.0707 84.0664 39.552L84.5203 39.3575C84.9094 41.0433 85.7782 44.6614 86.1413 45.6469C86.5952 46.8789 87.6326 50.3802 87.6975 51.1583C87.7493 51.7808 89.3401 56.7993 89.7723 57.8368V47.7866C89.7723 47.7866 89.4481 47.5273 88.9294 45.9063C88.4107 44.2853 88.4755 44.2853 88.4755 44.2853C88.4431 44.2205 88.4269 44.0908 88.4107 43.9611C88.3945 43.8314 88.3783 43.7018 88.3459 43.6369C88.3365 43.6182 88.319 43.5873 88.295 43.5449C88.1527 43.2933 87.7804 42.635 87.5029 41.6917C87.1787 40.5895 86.5952 38.7091 86.4655 38.4498C86.3358 38.1904 86.1413 37.542 86.0765 37.2178C86.0246 36.9584 86.1845 35.8994 86.271 35.4023L86.7249 38.9685C86.8518 37.1282 87.0532 33.2634 86.8673 32.2242C87.0438 33.115 87.3733 34.9386 87.3733 35.5968C87.3733 36.4397 87.4381 37.8014 87.5678 38.3849C87.6975 38.9685 87.6975 40.1356 87.6975 40.4598C87.6975 40.784 87.7623 41.0433 87.892 41.1082C87.9824 41.1534 88.0413 40.7573 88.0906 40.4254C88.1121 40.2813 88.1317 40.1493 88.1513 40.0707C88.179 39.9601 88.2421 39.0586 88.3154 38.0109C88.4139 36.603 88.5309 34.9311 88.6052 34.5594C88.843 35.8346 89.3444 38.6572 89.4481 39.7465C89.513 37.8662 89.7204 34.5983 89.7723 34.2352V21.5915C89.1239 21.6563 88.281 21.9157 87.9568 22.1102L87.9179 22.0764C87.5733 21.7771 86.82 21.1228 85.9468 20.7486C85.989 20.7604 86.0404 20.7751 86.0996 20.792C86.7995 20.9923 88.596 21.5064 89.2536 21.2673C89.9668 21.0079 89.7723 20.4244 89.7723 20.4244C89.765 20.4217 89.7321 20.4139 89.679 20.4012C89.2985 20.3105 87.8773 19.9717 87.3084 19.5166C88.0217 19.5166 89.3003 19.7464 89.7723 19.8408V18.9331C89.7723 18.9331 88.281 18.6089 89.7723 18.7385V12.5788C88.9942 13.0327 87.3733 14.524 86.2061 16.145C85.6442 16.253 84.2739 16.5729 83.2884 16.9879C83.7639 16.5772 85.065 15.6911 86.4655 15.1724C86.5303 15.1508 86.66 15.0816 86.66 14.9779C86.66 14.8482 86.5952 14.7833 86.271 14.8482C86.2401 14.8543 86.2016 14.8617 86.1564 14.8703C85.7264 14.9524 84.6871 15.1507 83.8071 15.5614C84.2826 15.2804 85.3892 14.6537 86.0116 14.3943C86.507 14.1879 87.1338 13.9815 87.5573 13.842C87.799 13.7624 87.9745 13.7046 88.0217 13.6811C88.1513 13.6162 88.2162 13.4217 87.9568 13.4217C87.6975 13.4217 85.039 13.6811 83.2235 14.3295C84.1313 13.8756 86.4655 12.8382 89.3833 12.3194C89.3833 12.3194 89.5778 12.2546 89.513 12.1249C89.4481 11.9952 89.3184 11.9952 89.3184 11.9952C88.7781 11.9736 86.9324 11.9563 86.2061 12.0601C86.7909 11.6946 87.6605 11.5352 88.3565 11.4075C88.8954 11.3087 89.3302 11.229 89.4481 11.0875C89.7723 10.6984 87.2436 10.6984 86.4007 10.7633C86.7897 10.5255 88.0865 9.98521 89.4481 9.66102C88.7997 9.59618 87.7234 9.75179 87.3084 9.85553C87.611 9.72585 88.8646 9.27198 89.7723 9.20714V8.75326C88.7349 8.75326 85.8949 9.29791 84.9094 9.66102C85.6442 9.20714 88.4755 7.89738 89.7723 7.58615V7.13227C89.4481 7.1755 87.6456 7.50834 87.1787 7.71583C87.2115 7.68483 87.2472 7.65053 87.2859 7.61336L87.2862 7.61314L87.2864 7.61292C87.7338 7.18361 88.5793 6.37235 89.7723 5.83548C89.4481 5.92194 87.6715 6.56169 87.3084 6.87292C87.5678 6.57033 89.2536 5.29083 89.7723 5.18709V4.66837C89.6642 4.66837 88.3718 5.09631 88.2162 5.25193C88.3243 5.07902 89.6167 4.00701 89.7723 3.95514V3.76062C89.0589 3.91915 88.2971 4.44105 87.783 4.79327ZM81.5377 22.3047C81.9527 21.9416 82.6184 21.5483 82.8993 21.397C82.7956 21.7082 82.2509 23.0828 81.9916 23.7312C81.8878 23.6793 81.6025 23.6663 81.4729 23.6663L81.5377 22.3047ZM83.6774 22.4344C83.418 22.6938 82.8475 23.3292 82.64 23.796C82.8129 23.8176 83.1976 23.8998 83.3532 24.0554C83.699 23.8393 84.4944 23.3811 84.9094 23.2773C84.6716 23.0612 84.0924 22.59 83.6774 22.4344ZM84.7148 21.6563C85.1298 21.9676 85.5794 22.6073 85.7523 22.8883C86.0116 22.7327 86.6816 22.5209 86.9842 22.4344C86.6211 22.2788 85.32 21.8508 84.7148 21.6563ZM83.7422 25.1577C83.7855 25.2225 83.8719 25.3911 83.8719 25.5467C84.4123 25.5467 85.5967 25.5856 86.0116 25.7412C85.7955 25.4819 85.3114 24.9502 85.1039 24.8983C84.8445 24.8335 84.1313 24.8335 83.7422 25.1577ZM79.787 23.8609C79.8389 23.7571 80.068 23.688 80.1761 23.6663C79.813 22.9401 79.4196 22.8883 79.2683 22.9531C79.5277 23.2125 79.7222 23.6663 79.787 23.8609ZM78.166 21.5266C78.0796 21.5266 77.8937 21.4748 77.8419 21.2673C77.9499 21.2457 78.166 21.2673 78.166 21.5266ZM83.1587 18.2198C84.0405 17.2861 85.3848 16.7069 85.9468 16.534C85.7393 16.7415 85.1687 17.5714 84.9094 17.9605C84.3906 17.9605 83.5261 18.1334 83.1587 18.2198ZM84.2042 18.7412L84.204 18.7413C83.6965 19.0026 83.0109 19.3558 82.7697 19.5166C83.029 19.4518 83.7033 19.3221 84.0664 19.3221C84.1961 19.106 84.4814 18.6478 84.5852 18.544C84.4832 18.5974 84.3512 18.6654 84.2042 18.7412ZM82.3806 20.8783C82.5362 20.7226 83.31 20.2082 83.6774 19.9705C83.5477 20.165 83.31 20.5541 83.2235 20.7486C82.9642 20.7486 82.5535 20.835 82.3806 20.8783Z" fill="white" fill-opacity="0.5"/>
<g filter="url(#filter0_bf_203_5091)">
<path d="M69.5724 65.2284L69.5724 46.6843C69.5724 46.6843 80.2409 47.0734 83.6126 51.9363C86.9842 56.7993 81.7322 65.2284 81.7322 65.2284H69.5724Z" fill="white" fill-opacity="0.5"/>
</g>
<path fill-rule="evenodd" clip-rule="evenodd" d="M91.9768 0H67.3676V67.4331H91.9768V0ZM90.8097 1.16711H68.5347V66.266H90.8097V1.16711Z" fill="white" fill-opacity="0.5"/>
<path fill-rule="evenodd" clip-rule="evenodd" d="M68.5348 1.16724H90.8097V66.2661H68.5348V1.16724ZM69.5722 2.20467V65.2287H89.7723V2.20467H69.5722Z" fill="white" fill-opacity="0.5"/>
<path d="M44.2832 2.33423H64.4483L35.4002 62.3108L6.35206 2.33423H26.5171L35.4002 21.4619L44.2832 2.33423Z" fill="white" fill-opacity="0.5"/>
<path d="M43.2174 8.75345C42.7635 8.94796 42.5474 9.44507 42.5042 9.59636L42.3097 10.2448L46.5242 11.2822L53.1379 9.59636C53.7214 9.20732 54.2401 9.19207 55.083 9.14248C55.9649 9.09061 56.7689 9.25055 57.0282 9.27216C56.0427 8.44222 54.7805 8.21312 54.305 8.23473C54.4087 8.07912 54.9534 7.60795 55.2127 7.39182C54.7589 7.32698 54.4347 7.32698 53.3324 7.5215C52.4506 7.67711 51.5817 8.14828 51.3224 8.29957C51.5817 7.91053 52.2712 7.4839 53.073 7.00278C53.7214 6.61374 53.9159 6.5489 54.1753 6.48406C52.4895 6.03019 51.3224 6.93794 50.7388 7.1973C50.1552 7.45666 49.6365 7.65117 49.1178 7.78085C49.2691 7.65117 49.7014 7.28807 50.2201 6.8731C50.7388 6.45813 51.3872 6.09503 51.6466 5.96535C51.4736 5.94373 50.9333 5.93941 50.1552 6.09503C49.3772 6.25064 48.5775 6.63536 48.2749 6.80826L49.053 5.64115C49.2605 5.32992 49.1394 5.33857 49.053 5.38179C48.7288 5.59792 47.847 6.27658 46.9133 7.26214C45.9796 8.2477 45.2274 9.57475 44.9681 10.1151L44.5142 9.72604C44.6439 9.20732 44.8254 8.76641 45.0329 8.29957C45.2404 7.83273 45.6165 7.24052 45.7462 7.06762C45.2923 7.13246 44.8629 7.55365 44.4494 8.10505C44.0603 8.62377 43.7577 9.22894 43.5416 9.6612H42.9581C42.9581 9.40184 43.131 8.94796 43.2174 8.75345Z" fill="white" fill-opacity="0.5"/>
<path d="M27.3966 5.96526C28.2395 6.54882 29.2986 8.10497 29.9254 8.8182H30.8331L31.7409 11.3469C30.0551 12.0818 26.5278 13.5255 25.9053 13.4218C25.1272 13.2921 24.5437 13.8108 24.3492 13.6812C24.1936 13.5774 23.8521 13.3786 23.7008 13.2921C23.7872 13.2057 24.0768 12.9679 24.5437 12.7086C25.0105 12.4492 25.5163 12.2115 25.7108 12.125C25.4514 11.9953 24.6734 12.1899 23.5063 12.3195C22.5726 12.4233 21.7772 12.5789 21.4962 12.6437C21.7556 12.3844 22.4688 11.9305 23.3766 11.5415C24.1028 11.2302 24.8463 10.6769 25.1272 10.4392C24.9976 10.4608 24.6863 10.517 24.4789 10.5689C24.2195 10.6337 23.6359 11.0227 22.7282 11.2173C22.002 11.3729 21.1288 11.7144 20.783 11.8657C21.0942 11.6063 21.2153 11.2821 21.2369 11.1524C20.7182 11.5155 20.1562 11.4334 19.9401 11.3469C20.3551 11.0357 20.6317 10.5689 20.7182 10.3743C20.2427 10.6337 19.2009 11.1524 18.8378 11.1524C18.4747 11.1524 18.3407 11.066 18.3191 11.0227C18.3839 10.9363 18.6174 10.6856 19.0323 10.3743C19.4473 10.0631 20.0698 9.76918 20.3291 9.66111C19.6807 9.66111 18.9675 9.98531 18.1894 10.2447C17.567 10.4522 16.8062 11.0227 16.5036 11.2821C16.9359 11.3902 18.2802 11.7489 20.1994 12.3195C22.1187 12.8901 24.9327 14.2431 26.0998 14.8483C26.0998 17.9173 26.048 24.0814 25.8405 24.1852C25.633 24.2889 25.4082 24.6174 25.3218 24.7687C25.7756 24.7039 25.9702 24.7687 26.035 24.7687L29.6012 28.4646C29.653 29.2426 29.666 30.9069 29.666 31.6417C29.7179 31.3823 29.947 31.0582 30.0551 30.9285C30.1199 30.6691 29.9902 30.3449 29.9254 29.8262C29.8735 29.4112 29.7741 28.7888 29.7309 28.5294C30.0767 28.3349 30.7423 27.9977 30.6386 28.2052C30.5089 28.4646 30.5738 30.0856 30.5738 29.891C30.5738 29.7354 31.1789 28.5294 31.4815 27.9459L37.6413 27.2975L36.6038 54.0762C36.15 54.6597 35.8906 55.2433 35.5664 55.6972C35.4821 55.8151 35.3719 56.0214 35.2422 55.8917C35.1385 55.7879 35.1558 54.5517 35.1774 53.9465C34.9829 54.9839 33.8806 56.2807 33.7509 56.3456C33.6472 56.3974 33.5756 56.3299 33.6212 56.2159C33.9325 55.4378 34.0535 53.9681 34.0751 53.4278L33.7509 53.1036C33.7509 53.4278 33.6212 53.6223 33.4915 53.8168C33.3619 54.0113 33.297 53.8168 33.297 53.6871C33.297 53.5231 33.297 53.2333 33.3619 52.8442L33.6212 39.8115C33.7768 39.3965 34.8964 37.5637 35.4367 36.6992V36.1805C35.1774 36.5695 34.7883 37.0882 34.0103 38.3202C33.3878 39.3057 32.7999 40.2437 32.5838 40.5896C32.9728 38.0608 33.7509 36.1805 33.9454 35.7266C34.101 35.3635 34.1616 35.1863 34.1399 35.143C33.9454 35.3376 33.5564 35.8563 33.3619 36.1805C33.2063 36.4398 32.6919 37.0234 32.4541 37.2827C32.4541 37.1315 32.506 36.6084 32.7135 35.7266C32.921 34.8448 33.4051 33.9759 33.6212 33.6517C33.1025 33.9759 32.7135 34.4946 32.3244 34.9485C32.519 33.7814 34.0751 31.7498 34.7235 31.0582V30.734C34.2048 31.2008 33.1673 32.3982 32.7135 32.9385C32.7135 32.2642 33.1457 30.7988 33.3619 30.1504C32.8431 30.9933 31.9354 33.3924 31.6112 34.0408C31.287 34.6892 29.5363 39.3576 28.9528 40.9786C28.4859 42.2754 27.8505 45.1499 27.5912 46.4251L25.3866 41.7567C25.5811 40.7841 26.5537 38.8389 26.6186 38.6444C26.6704 38.4888 26.8131 38.3634 26.8779 38.3202C27.1891 37.3865 28.3476 34.6459 28.8879 33.3924C28.8879 33.0033 28.4989 29.4372 28.4341 29.0481C28.3822 28.7369 28.2395 28.6159 28.1747 28.5942C28.1099 30.2801 28.0251 32.9385 27.5263 34.2353C27.267 34.9096 26.6402 35.424 26.3592 35.5969C26.7742 33.937 26.8779 31.9227 26.8779 31.123C26.7482 32.4198 26.0998 34.6243 25.8405 35.0782C25.633 35.4413 25.2353 35.5321 25.0624 35.5321C25.2353 34.6459 25.6071 32.6402 25.7108 31.7065C25.8145 30.7729 25.754 30.1936 25.7108 30.0207C25.1921 33.0682 23.8305 36.375 22.9227 37.0234L22.6633 36.5695C22.7152 35.9989 23.3766 33.7382 23.7008 32.6791C23.4414 33.3016 22.5121 34.6675 22.0798 35.2727L21.5611 34.2353C21.976 33.561 22.4256 31.9227 22.5985 31.1878C22.1317 32.4846 21.5827 33.3275 21.3666 33.5869L17.8652 26.7787C18.2283 26.6231 19.4862 26.4113 20.0698 26.3249C19.3954 26.3249 18.4056 26.4113 17.9949 26.4545V26.3249C19.0842 25.7024 21.9933 25.201 23.3117 25.0281C23.5711 24.4445 24.4789 22.6939 24.8031 22.3048C25.0624 21.9936 25.2569 21.5267 25.3218 21.3322C25.1272 21.5916 24.6734 22.1103 23.6359 23.0829C22.806 23.861 21.6043 24.6607 21.1072 24.9632C21.0856 24.7903 21.1331 24.3148 21.4962 23.7961C21.8593 23.2774 23.2469 21.7645 23.8953 21.0729C21.4573 23.459 20.0265 24.2284 19.6159 24.3148C21.3795 22.4993 22.8579 20.4029 23.3766 19.5816C23.1172 19.7977 22.391 20.4763 21.5611 21.4619C20.7311 22.4475 19.3998 23.3422 18.8378 23.6664C18.9027 23.5368 19.0842 23.2255 19.2917 23.0181C19.5511 22.7587 20.783 21.008 21.2369 20.4893C21.6 20.0743 22.9011 18.3712 23.5063 17.5715C23.1172 17.9606 20.5885 20.3596 20.0698 20.7487C19.6548 21.0599 17.9085 22.7803 17.0872 23.6016C17.2168 23.1693 17.6059 22.0195 18.1246 20.8783C18.6433 19.7372 19.3349 18.6306 19.6159 18.2199C19.0323 18.609 18.2543 19.5167 17.8004 20.0354C17.4373 20.4504 16.3091 21.5484 15.7904 22.0455L15.531 21.6564C16.1016 20.619 16.6981 19.4735 16.8926 18.998C16.6333 19.4648 15.7039 20.3596 15.2716 20.7487L14.6232 20.1003C15.0901 19.6853 15.5526 18.9332 15.7255 18.609C15.518 18.7646 14.9042 19.279 14.6232 19.5167L14.1694 18.8035C14.4287 18.6479 15.5742 17.3122 16.1146 16.6638C15.8552 16.7675 14.58 17.7444 13.9749 18.2199L13.4561 17.1825C13.8192 16.8713 13.9532 16.6206 13.9749 16.5341C13.8192 16.586 13.521 16.8151 13.3913 16.9231L12.8726 15.8209C13.7544 15.3022 14.1045 14.8699 14.1694 14.7186C13.8063 15.0817 13.0671 15.4751 12.7429 15.6263L10.4087 11.1524C11.8092 10.6856 14.8826 10.9579 16.2442 11.1524C16.9575 10.2447 17.6059 9.72595 18.3191 9.27208C18.8897 8.90898 19.5511 8.25626 19.8104 7.97529C19.7888 7.95367 19.6548 7.92342 19.2917 7.97529C18.9286 8.02716 18.3623 8.38594 18.1246 8.55884C17.6059 8.88304 16.0497 10.2859 15.2068 10.4392C14.6362 10.5429 14.58 10.4392 14.6232 10.3743C14.58 10.3743 14.714 10.2058 15.5958 9.53143C16.4777 8.8571 16.6981 8.47239 16.6981 8.36432C15.5569 9.19427 14.3639 9.83402 13.91 10.0502C13.3913 10.3095 12.4835 10.6337 12.2242 10.7634C12.0167 10.8671 12.0513 10.6769 12.0945 10.5689C12.2674 10.3527 12.8466 9.76486 13.7803 9.1424C14.714 8.51994 15.3365 7.80238 15.531 7.52141C15.1636 7.78077 14.2991 8.37729 13.7803 8.68852C13.1319 9.07756 12.1593 9.40176 11.5758 9.53143C11.1089 9.63518 10.3006 9.87725 9.9548 9.98531L9.76029 9.40176C10.279 8.94788 11.2516 8.494 11.7703 8.29948C12.1853 8.14387 13.0239 7.58625 13.3913 7.32689C13.4561 7.28367 13.521 7.19721 13.2616 7.19721C12.9374 7.19721 11.9648 7.71593 11.5758 7.84561C11.1868 7.97529 10.9274 8.04013 10.5384 8.29948C10.2271 8.50697 9.67383 9.07756 9.43609 9.33692L8.98221 8.04013C9.17673 7.71593 10.5384 6.54882 11.7055 5.96526C12.6392 5.49842 13.9532 5.29525 14.4936 5.25203C14.0397 4.86299 13.4615 4.92783 13.0671 4.92783C12.6781 4.92783 11.9 4.99267 11.7055 4.79815C11.5414 4.63412 11.4461 4.66847 11.3164 4.60363C12.9961 3.76378 14.1609 3.8251 15.3879 3.88969L15.4013 3.8904C16.6333 3.95524 17.6059 4.34427 17.9949 4.47395C18.3061 4.5777 18.5568 4.60363 18.6433 4.60363C18.4488 4.27943 17.8652 4.02008 17.0872 3.82556C16.4647 3.66994 15.5742 3.32846 15.2068 3.17716C16.5684 2.85297 17.6707 3.04748 18.5136 3.17716C19.188 3.28091 20.7398 3.95524 21.4314 4.27943C20.9127 3.8904 20.6533 3.37168 20.394 3.17716C20.1865 3.02155 19.6591 2.89619 19.4214 2.85297C19.7456 2.72329 20.5236 2.52877 21.9501 3.17716C23.0913 3.69588 23.7656 4.73331 23.9601 5.18719C23.9601 5.05751 23.8305 4.53879 23.5063 3.8904C23.2469 3.37168 22.5337 2.85297 22.2095 2.65845C23.1172 2.72329 24.5437 3.50136 25.646 4.34427C26.5278 5.01861 27.1805 6.09494 27.3966 6.54882C27.3966 6.3932 27.3534 6.09494 27.3318 5.96526H27.3966Z" fill="white" fill-opacity="0.5"/>
<path fill-rule="evenodd" clip-rule="evenodd" d="M68.1723 0L35.4001 67.6658L2.62793 0H28.0067L35.4001 15.9201L42.7935 0H68.1723ZM35.4001 18.691L27.2619 1.16711H4.48998L35.4001 64.9883L66.3103 1.16711H43.5383L35.4001 18.691Z" fill="white" fill-opacity="0.5"/>
<path fill-rule="evenodd" clip-rule="evenodd" d="M66.3103 1.16724L35.4001 64.9884L4.48998 1.16724H27.2619L35.4001 18.6911L43.5383 1.16724H66.3103ZM35.4001 21.462L26.5171 2.33435H6.35203L35.4001 62.3109L64.4482 2.33435H44.2831L35.4001 21.462Z" fill="white" fill-opacity="0.5"/>
<mask id="path-11-outside-1_203_5091" maskUnits="userSpaceOnUse" x="0" y="14.1396" width="113" height="34" fill="black">
<rect fill="white" y="14.1396" width="113" height="34"/>
<path d="M2.02125 46.1396V40.1948L13.3759 30.8019C14.129 30.1777 14.773 29.5931 15.308 29.0482C15.853 28.4933 16.2691 27.9236 16.5565 27.339C16.8537 26.7544 17.0023 26.1055 17.0023 25.3921C17.0023 24.6093 16.8339 23.9405 16.497 23.3857C16.17 22.8308 15.7143 22.4048 15.1297 22.1075C14.5451 21.8004 13.8714 21.6468 13.1084 21.6468C12.3455 21.6468 11.6718 21.8004 11.0872 22.1075C10.5125 22.4147 10.0666 22.8655 9.74958 23.46C9.43252 24.0545 9.27399 24.7778 9.27399 25.6299H1.42677C1.42677 23.4897 1.90731 21.6468 2.8684 20.1011C3.82948 18.5555 5.1869 17.3665 6.94063 16.5342C8.69437 15.7019 10.7503 15.2858 13.1084 15.2858C15.5458 15.2858 17.6563 15.6772 19.4397 16.4599C21.2331 17.2327 22.6153 18.3226 23.5863 19.7296C24.5672 21.1365 25.0576 22.7862 25.0576 24.6787C25.0576 25.8478 24.8149 27.012 24.3294 28.1713C23.8439 29.3206 22.972 30.5938 21.7136 31.9909C20.4553 33.3879 18.6669 35.0525 16.3484 36.9846L13.4948 39.3625V39.5408H25.3846V46.1396H2.02125ZM42.3349 46.9719C39.5705 46.962 37.1827 46.3229 35.1713 45.0547C33.16 43.7865 31.6093 41.9584 30.5195 39.5706C29.4296 37.1827 28.8896 34.3193 28.8995 30.9802C28.9094 27.6313 29.4543 24.7877 30.5343 22.4494C31.6242 20.111 33.1699 18.3325 35.1713 17.1138C37.1827 15.8951 39.5705 15.2858 42.3349 15.2858C45.0992 15.2858 47.4871 15.9001 49.4984 17.1287C51.5098 18.3474 53.0604 20.1259 54.1503 22.4642C55.2402 24.8025 55.7802 27.6412 55.7703 30.9802C55.7703 34.3391 55.2253 37.2124 54.1354 39.6003C53.0455 41.9882 51.4949 43.8162 49.4836 45.0844C47.4821 46.3428 45.0992 46.9719 42.3349 46.9719ZM42.3349 40.2542C43.7616 40.2542 44.9308 39.5111 45.8423 38.0249C46.7638 36.5288 47.2196 34.1806 47.2097 30.9802C47.2097 28.8896 47.0016 27.1805 46.5855 25.8528C46.1693 24.5251 45.5946 23.5442 44.8614 22.9101C44.1282 22.2661 43.2861 21.944 42.3349 21.944C40.9081 21.944 39.7439 22.6673 38.8423 24.1139C37.9406 25.5605 37.4799 27.8493 37.4601 30.9802C37.4502 33.1105 37.6533 34.8642 38.0694 36.2414C38.4856 37.6088 39.0602 38.6194 39.7934 39.2733C40.5366 39.9273 41.3837 40.2542 42.3349 40.2542ZM59.6493 46.1396V40.1948L71.004 30.8019C71.757 30.1777 72.401 29.5931 72.9361 29.0482C73.481 28.4933 73.8972 27.9236 74.1845 27.339C74.4817 26.7544 74.6304 26.1055 74.6304 25.3921C74.6304 24.6093 74.4619 23.9405 74.125 23.3857C73.7981 22.8308 73.3423 22.4048 72.7577 22.1075C72.1731 21.8004 71.4994 21.6468 70.7365 21.6468C69.9735 21.6468 69.2998 21.8004 68.7152 22.1075C68.1405 22.4147 67.6947 22.8655 67.3776 23.46C67.0606 24.0545 66.902 24.7778 66.902 25.6299H59.0548C59.0548 23.4897 59.5353 21.6468 60.4964 20.1011C61.4575 18.5555 62.8149 17.3665 64.5687 16.5342C66.3224 15.7019 68.3783 15.2858 70.7365 15.2858C73.1739 15.2858 75.2843 15.6772 77.0677 16.4599C78.8611 17.2327 80.2433 18.3226 81.2143 19.7296C82.1952 21.1365 82.6856 22.7862 82.6856 24.6787C82.6856 25.8478 82.4429 27.012 81.9574 28.1713C81.4719 29.3206 80.6 30.5938 79.3417 31.9909C78.0833 33.3879 76.2949 35.0525 73.9764 36.9846L71.1229 39.3625V39.5408H83.0126V46.1396H59.6493ZM98.8928 46.5558C96.5545 46.5558 94.4788 46.1446 92.6656 45.3222C90.8623 44.4899 89.4405 43.3456 88.4001 41.8891C87.3697 40.4326 86.8446 38.7581 86.8248 36.8657H94.8503C94.8801 37.9159 95.2863 38.7532 96.069 39.3774C96.8617 40.0016 97.8029 40.3137 98.8928 40.3137C99.735 40.3137 100.478 40.1353 101.122 39.7786C101.766 39.412 102.272 38.8968 102.638 38.233C103.005 37.5691 103.183 36.7963 103.173 35.9145C103.183 35.0228 103.005 34.2499 102.638 33.596C102.272 32.9321 101.766 32.4219 101.122 32.0652C100.478 31.6986 99.735 31.5153 98.8928 31.5153C98.0209 31.5153 97.2134 31.7283 96.4703 32.1544C95.7371 32.5705 95.1971 33.1501 94.8503 33.8932L87.5976 32.4665L88.7866 15.7019H109.237V22.3007H95.5637L94.9692 29.0184H95.1476C95.6232 28.097 96.4455 27.3341 97.6147 26.7297C98.7838 26.1154 100.141 25.8082 101.687 25.8082C103.5 25.8082 105.115 26.2293 106.532 27.0715C107.959 27.9137 109.083 29.0779 109.906 30.5641C110.738 32.0404 111.149 33.7446 111.139 35.6767C111.149 37.797 110.644 39.6796 109.623 41.3243C108.613 42.9591 107.191 44.2422 105.358 45.1736C103.525 46.0951 101.37 46.5558 98.8928 46.5558Z"/>
</mask>
<path d="M2.02125 46.1396V40.1948L13.3759 30.8019C14.129 30.1777 14.773 29.5931 15.308 29.0482C15.853 28.4933 16.2691 27.9236 16.5565 27.339C16.8537 26.7544 17.0023 26.1055 17.0023 25.3921C17.0023 24.6093 16.8339 23.9405 16.497 23.3857C16.17 22.8308 15.7143 22.4048 15.1297 22.1075C14.5451 21.8004 13.8714 21.6468 13.1084 21.6468C12.3455 21.6468 11.6718 21.8004 11.0872 22.1075C10.5125 22.4147 10.0666 22.8655 9.74958 23.46C9.43252 24.0545 9.27399 24.7778 9.27399 25.6299H1.42677C1.42677 23.4897 1.90731 21.6468 2.8684 20.1011C3.82948 18.5555 5.1869 17.3665 6.94063 16.5342C8.69437 15.7019 10.7503 15.2858 13.1084 15.2858C15.5458 15.2858 17.6563 15.6772 19.4397 16.4599C21.2331 17.2327 22.6153 18.3226 23.5863 19.7296C24.5672 21.1365 25.0576 22.7862 25.0576 24.6787C25.0576 25.8478 24.8149 27.012 24.3294 28.1713C23.8439 29.3206 22.972 30.5938 21.7136 31.9909C20.4553 33.3879 18.6669 35.0525 16.3484 36.9846L13.4948 39.3625V39.5408H25.3846V46.1396H2.02125ZM42.3349 46.9719C39.5705 46.962 37.1827 46.3229 35.1713 45.0547C33.16 43.7865 31.6093 41.9584 30.5195 39.5706C29.4296 37.1827 28.8896 34.3193 28.8995 30.9802C28.9094 27.6313 29.4543 24.7877 30.5343 22.4494C31.6242 20.111 33.1699 18.3325 35.1713 17.1138C37.1827 15.8951 39.5705 15.2858 42.3349 15.2858C45.0992 15.2858 47.4871 15.9001 49.4984 17.1287C51.5098 18.3474 53.0604 20.1259 54.1503 22.4642C55.2402 24.8025 55.7802 27.6412 55.7703 30.9802C55.7703 34.3391 55.2253 37.2124 54.1354 39.6003C53.0455 41.9882 51.4949 43.8162 49.4836 45.0844C47.4821 46.3428 45.0992 46.9719 42.3349 46.9719ZM42.3349 40.2542C43.7616 40.2542 44.9308 39.5111 45.8423 38.0249C46.7638 36.5288 47.2196 34.1806 47.2097 30.9802C47.2097 28.8896 47.0016 27.1805 46.5855 25.8528C46.1693 24.5251 45.5946 23.5442 44.8614 22.9101C44.1282 22.2661 43.2861 21.944 42.3349 21.944C40.9081 21.944 39.7439 22.6673 38.8423 24.1139C37.9406 25.5605 37.4799 27.8493 37.4601 30.9802C37.4502 33.1105 37.6533 34.8642 38.0694 36.2414C38.4856 37.6088 39.0602 38.6194 39.7934 39.2733C40.5366 39.9273 41.3837 40.2542 42.3349 40.2542ZM59.6493 46.1396V40.1948L71.004 30.8019C71.757 30.1777 72.401 29.5931 72.9361 29.0482C73.481 28.4933 73.8972 27.9236 74.1845 27.339C74.4817 26.7544 74.6304 26.1055 74.6304 25.3921C74.6304 24.6093 74.4619 23.9405 74.125 23.3857C73.7981 22.8308 73.3423 22.4048 72.7577 22.1075C72.1731 21.8004 71.4994 21.6468 70.7365 21.6468C69.9735 21.6468 69.2998 21.8004 68.7152 22.1075C68.1405 22.4147 67.6947 22.8655 67.3776 23.46C67.0606 24.0545 66.902 24.7778 66.902 25.6299H59.0548C59.0548 23.4897 59.5353 21.6468 60.4964 20.1011C61.4575 18.5555 62.8149 17.3665 64.5687 16.5342C66.3224 15.7019 68.3783 15.2858 70.7365 15.2858C73.1739 15.2858 75.2843 15.6772 77.0677 16.4599C78.8611 17.2327 80.2433 18.3226 81.2143 19.7296C82.1952 21.1365 82.6856 22.7862 82.6856 24.6787C82.6856 25.8478 82.4429 27.012 81.9574 28.1713C81.4719 29.3206 80.6 30.5938 79.3417 31.9909C78.0833 33.3879 76.2949 35.0525 73.9764 36.9846L71.1229 39.3625V39.5408H83.0126V46.1396H59.6493ZM98.8928 46.5558C96.5545 46.5558 94.4788 46.1446 92.6656 45.3222C90.8623 44.4899 89.4405 43.3456 88.4001 41.8891C87.3697 40.4326 86.8446 38.7581 86.8248 36.8657H94.8503C94.8801 37.9159 95.2863 38.7532 96.069 39.3774C96.8617 40.0016 97.8029 40.3137 98.8928 40.3137C99.735 40.3137 100.478 40.1353 101.122 39.7786C101.766 39.412 102.272 38.8968 102.638 38.233C103.005 37.5691 103.183 36.7963 103.173 35.9145C103.183 35.0228 103.005 34.2499 102.638 33.596C102.272 32.9321 101.766 32.4219 101.122 32.0652C100.478 31.6986 99.735 31.5153 98.8928 31.5153C98.0209 31.5153 97.2134 31.7283 96.4703 32.1544C95.7371 32.5705 95.1971 33.1501 94.8503 33.8932L87.5976 32.4665L88.7866 15.7019H109.237V22.3007H95.5637L94.9692 29.0184H95.1476C95.6232 28.097 96.4455 27.3341 97.6147 26.7297C98.7838 26.1154 100.141 25.8082 101.687 25.8082C103.5 25.8082 105.115 26.2293 106.532 27.0715C107.959 27.9137 109.083 29.0779 109.906 30.5641C110.738 32.0404 111.149 33.7446 111.139 35.6767C111.149 37.797 110.644 39.6796 109.623 41.3243C108.613 42.9591 107.191 44.2422 105.358 45.1736C103.525 46.0951 101.37 46.5558 98.8928 46.5558Z" fill="white"/>
<path d="M2.02125 46.1396H0.974958V47.1859H2.02125V46.1396ZM2.02125 40.1948L1.35434 39.3886L0.974958 39.7024V40.1948H2.02125ZM13.3759 30.8019L14.0429 31.6081L14.0437 31.6074L13.3759 30.8019ZM15.308 29.0482L14.5616 28.315L14.5614 28.3151L15.308 29.0482ZM16.5565 27.339L15.6238 26.8648L15.6206 26.8711L15.6175 26.8775L16.5565 27.339ZM16.497 23.3857L15.5955 23.9169L15.6026 23.9287L16.497 23.3857ZM15.1297 22.1075L14.643 23.0338L14.6555 23.0402L15.1297 22.1075ZM11.0872 22.1075L10.6005 21.1813L10.594 21.1848L11.0872 22.1075ZM9.74958 23.46L8.82638 22.9676L8.82638 22.9676L9.74958 23.46ZM9.27399 25.6299V26.6762H10.3203V25.6299H9.27399ZM1.42677 25.6299H0.380471V26.6762H1.42677V25.6299ZM2.8684 20.1011L1.97986 19.5486L1.97986 19.5487L2.8684 20.1011ZM6.94063 16.5342L7.38922 17.4795L7.38922 17.4795L6.94063 16.5342ZM19.4397 16.4599L19.0192 17.418L19.0256 17.4208L19.4397 16.4599ZM23.5863 19.7296L22.7251 20.3239L22.728 20.328L23.5863 19.7296ZM24.3294 28.1713L25.2932 28.5784L25.2944 28.5755L24.3294 28.1713ZM21.7136 31.9909L22.4911 32.6911L22.4911 32.6911L21.7136 31.9909ZM16.3484 36.9846L17.0182 37.7883L16.3484 36.9846ZM13.4948 39.3625L12.825 38.5587L12.4485 38.8724V39.3625H13.4948ZM13.4948 39.5408H12.4485V40.5871H13.4948V39.5408ZM25.3846 39.5408H26.4309V38.4946H25.3846V39.5408ZM25.3846 46.1396V47.1859H26.4309V46.1396H25.3846ZM3.06755 46.1396V40.1948H0.974958V46.1396H3.06755ZM2.68817 41.001L14.0429 31.6081L12.709 29.9957L1.35434 39.3886L2.68817 41.001ZM14.0437 31.6074C14.817 30.9664 15.4888 30.3575 16.0546 29.7812L14.5614 28.3151C14.0572 28.8287 13.4409 29.389 12.7082 29.9964L14.0437 31.6074ZM16.0545 29.7813C16.663 29.1618 17.1504 28.5026 17.4954 27.8006L15.6175 26.8775C15.3879 27.3446 15.043 27.8248 14.5616 28.315L16.0545 29.7813ZM17.4891 27.8132C17.8675 27.0691 18.0486 26.2555 18.0486 25.3921H15.956C15.956 25.9554 15.8399 26.4397 15.6238 26.8648L17.4891 27.8132ZM18.0486 25.3921C18.0486 24.4574 17.8463 23.592 17.3914 22.8427L15.6026 23.9287C15.8214 24.289 15.956 24.7612 15.956 25.3921H18.0486ZM17.3984 22.8545C16.9683 22.1245 16.3628 21.5607 15.6039 21.1749L14.6555 23.0402C15.0657 23.2488 15.3718 23.5371 15.5956 23.9169L17.3984 22.8545ZM15.6163 21.1813C14.8599 20.7838 14.0144 20.6005 13.1084 20.6005V22.6931C13.7283 22.6931 14.2303 22.8169 14.643 23.0338L15.6163 21.1813ZM13.1084 20.6005C12.2024 20.6005 11.357 20.7838 10.6005 21.1813L11.5738 23.0338C11.9865 22.8169 12.4886 22.6931 13.1084 22.6931V20.6005ZM10.594 21.1848C9.83003 21.5931 9.23746 22.1968 8.82638 22.9676L10.6728 23.9524C10.8958 23.5342 11.195 23.2363 11.5804 23.0303L10.594 21.1848ZM8.82638 22.9676C8.40989 23.7485 8.22769 24.6505 8.22769 25.6299H10.3203C10.3203 24.905 10.4552 24.3604 10.6728 23.9524L8.82638 22.9676ZM9.27399 24.5836H1.42677V26.6762H9.27399V24.5836ZM2.47306 25.6299C2.47306 23.6502 2.91592 22.0062 3.75693 20.6536L1.97986 19.5487C0.898703 21.2874 0.380471 23.3293 0.380471 25.6299H2.47306ZM3.75693 20.6536C4.60492 19.2898 5.80414 18.2317 7.38922 17.4795L6.49204 15.589C4.56965 16.5013 3.05405 17.8211 1.97986 19.5486L3.75693 20.6536ZM7.38922 17.4795C8.97593 16.7265 10.8727 16.3321 13.1084 16.3321V14.2395C10.6279 14.2395 8.41281 14.6774 6.49204 15.589L7.38922 17.4795ZM13.1084 16.3321C15.4363 16.3321 17.3972 16.7061 19.0192 17.418L19.8602 15.5018C17.9153 14.6482 15.6553 14.2395 13.1084 14.2395V16.3321ZM19.0256 17.4208C20.6648 18.1272 21.881 19.1007 22.7251 20.3239L24.4474 19.1353C23.3495 17.5445 21.8013 16.3383 19.8538 15.499L19.0256 17.4208ZM22.728 20.328C23.5739 21.5413 24.0113 22.9771 24.0113 24.6787H26.1039C26.1039 22.5954 25.5604 20.7318 24.4445 19.1312L22.728 20.328ZM24.0113 24.6787C24.0113 25.6989 23.8002 26.7262 23.3643 27.7671L25.2944 28.5755C25.8295 27.2979 26.1039 25.9968 26.1039 24.6787H24.0113ZM23.3655 27.7642C22.9422 28.7662 22.152 29.9408 20.9362 31.2906L22.4911 32.6911C23.792 31.2468 24.7455 29.875 25.2932 28.5784L23.3655 27.7642ZM20.9362 31.2906C19.725 32.6354 17.9787 34.264 15.6786 36.1808L17.0182 37.7883C19.3551 35.841 21.1856 34.1405 22.4911 32.6911L20.9362 31.2906ZM15.6786 36.1808L12.825 38.5587L14.1647 40.1663L17.0182 37.7883L15.6786 36.1808ZM12.4485 39.3625V39.5408H14.5411V39.3625H12.4485ZM13.4948 40.5871H25.3846V38.4946H13.4948V40.5871ZM24.3383 39.5408V46.1396H26.4309V39.5408H24.3383ZM25.3846 45.0934H2.02125V47.1859H25.3846V45.0934ZM42.3349 46.9719L42.3311 48.0182H42.3349V46.9719ZM35.1713 45.0547L34.6133 45.9398L34.6133 45.9398L35.1713 45.0547ZM30.5195 39.5706L29.5676 40.005L29.5676 40.005L30.5195 39.5706ZM28.8995 30.9802L29.9458 30.9833L29.9458 30.9833L28.8995 30.9802ZM30.5343 22.4494L29.586 22.0073L29.5844 22.0106L30.5343 22.4494ZM35.1713 17.1138L34.6291 16.219L34.6272 16.2202L35.1713 17.1138ZM49.4984 17.1287L48.953 18.0216L48.9562 18.0236L49.4984 17.1287ZM54.1503 22.4642L55.0986 22.0222L55.0986 22.0222L54.1503 22.4642ZM55.7703 30.9802L54.724 30.9771V30.9802H55.7703ZM54.1354 39.6003L55.0873 40.0347L55.0873 40.0347L54.1354 39.6003ZM49.4836 45.0844L50.0405 45.9702L50.0416 45.9695L49.4836 45.0844ZM45.8423 38.0249L44.9515 37.4762L44.9504 37.4779L45.8423 38.0249ZM47.2097 30.9802L46.1634 30.9802L46.1634 30.9835L47.2097 30.9802ZM46.5855 25.8528L47.5839 25.5399L47.5839 25.5399L46.5855 25.8528ZM44.8614 22.9101L44.1709 23.6962L44.177 23.7015L44.8614 22.9101ZM38.8423 24.1139L37.9543 23.5605L37.9543 23.5605L38.8423 24.1139ZM37.4601 30.9802L36.4138 30.9736L36.4138 30.9754L37.4601 30.9802ZM38.0694 36.2414L37.0679 36.5441L37.0685 36.5461L38.0694 36.2414ZM39.7934 39.2733L39.097 40.0542L39.1022 40.0588L39.7934 39.2733ZM42.3386 45.9256C39.738 45.9163 37.5492 45.3172 35.7294 44.1697L34.6133 45.9398C36.8161 47.3287 39.403 48.0077 42.3311 48.0182L42.3386 45.9256ZM35.7294 44.1697C33.908 43.0212 32.4857 41.3586 31.4713 39.1361L29.5676 40.005C30.733 42.5582 32.4119 44.5517 34.6133 45.9398L35.7294 44.1697ZM31.4713 39.1361C30.4587 36.9176 29.9362 34.2111 29.9458 30.9833L27.8532 30.9771C27.8429 34.4274 28.4004 37.4478 29.5676 40.005L31.4713 39.1361ZM29.9458 30.9833C29.9554 27.7415 30.4832 25.0553 31.4842 22.8881L29.5844 22.0106C28.4254 24.52 27.8634 27.5211 27.8532 30.9771L29.9458 30.9833ZM31.4827 22.8914C32.4945 20.7205 33.908 19.1081 35.7155 18.0075L34.6272 16.2202C32.4317 17.557 30.7539 19.5016 29.586 22.0073L31.4827 22.8914ZM35.7135 18.0087C37.5346 16.9053 39.7277 16.3321 42.3349 16.3321V14.2395C39.4133 14.2395 36.8307 14.885 34.6291 16.219L35.7135 18.0087ZM42.3349 16.3321C44.9405 16.3321 47.1325 16.9095 48.953 18.0216L50.0438 16.2358C47.8417 14.8907 45.258 14.2395 42.3349 14.2395V16.3321ZM48.9562 18.0236C50.7732 19.1245 52.1908 20.7368 53.202 22.9062L55.0986 22.0222C53.93 19.515 52.2463 17.5703 50.0406 16.2339L48.9562 18.0236ZM53.202 22.9062C54.2107 25.0705 54.7336 27.7484 54.724 30.9771L56.8166 30.9833C56.8268 27.5341 56.2697 24.5346 55.0986 22.0222L53.202 22.9062ZM54.724 30.9802C54.724 34.2296 54.1964 36.9469 53.1836 39.1658L55.0873 40.0347C56.2542 37.478 56.8166 34.4486 56.8166 30.9802H54.724ZM53.1836 39.1658C52.1692 41.3884 50.7468 43.051 48.9255 44.1994L50.0416 45.9695C52.243 44.5814 53.9219 42.5879 55.0873 40.0347L53.1836 39.1658ZM48.9267 44.1987C47.1186 45.3354 44.9361 45.9256 42.3349 45.9256V48.0182C45.2624 48.0182 47.8457 47.3501 50.0405 45.9702L48.9267 44.1987ZM42.3349 41.3005C44.2103 41.3005 45.6814 40.2885 46.7342 38.5719L44.9504 37.4779C44.1801 38.7338 43.3129 39.2079 42.3349 39.2079V41.3005ZM46.7332 38.5736C47.8106 36.8243 48.266 34.2349 48.256 30.977L46.1634 30.9835C46.1731 34.1263 45.717 36.2333 44.9515 37.4762L46.7332 38.5736ZM48.256 30.9802C48.256 28.8312 48.0434 27.006 47.5839 25.5399L45.587 26.1657C45.9598 27.3549 46.1634 28.9481 46.1634 30.9802H48.256ZM47.5839 25.5399C47.1335 24.1031 46.4769 22.9239 45.5459 22.1187L44.177 23.7015C44.7124 24.1645 45.2051 24.9471 45.587 26.1657L47.5839 25.5399ZM45.5519 22.124C44.6333 21.317 43.5473 20.8978 42.3349 20.8978V22.9903C43.0248 22.9903 43.6232 23.2151 44.1709 23.6962L45.5519 22.124ZM42.3349 20.8978C40.4719 20.8978 39.0037 21.8769 37.9543 23.5605L39.7302 24.6674C40.4841 23.4578 41.3443 22.9903 42.3349 22.9903V20.8978ZM37.9543 23.5605C36.896 25.2584 36.434 27.7875 36.4138 30.9736L38.5064 30.9869C38.5258 27.9111 38.9852 25.8626 39.7302 24.6674L37.9543 23.5605ZM36.4138 30.9754C36.4036 33.1648 36.6109 35.0317 37.0679 36.5441L39.071 35.9388C38.6957 34.6968 38.4967 33.0562 38.5064 30.9851L36.4138 30.9754ZM37.0685 36.5461C37.5166 38.0185 38.1696 39.227 39.097 40.0542L40.4899 38.4925C39.9509 38.0118 39.4546 37.1991 39.0704 35.9368L37.0685 36.5461ZM39.1022 40.0588C40.0279 40.8734 41.1181 41.3005 42.3349 41.3005V39.2079C41.6493 39.2079 41.0452 38.9812 40.4847 38.4879L39.1022 40.0588ZM59.6493 46.1396H58.603V47.1859H59.6493V46.1396ZM59.6493 40.1948L58.9824 39.3886L58.603 39.7024V40.1948H59.6493ZM71.004 30.8019L71.6709 31.6081L71.6717 31.6074L71.004 30.8019ZM72.9361 29.0482L72.1896 28.315L72.1895 28.3151L72.9361 29.0482ZM74.1845 27.339L73.2518 26.8648L73.2486 26.8711L73.2455 26.8775L74.1845 27.339ZM74.125 23.3857L73.2235 23.9169L73.2307 23.9287L74.125 23.3857ZM72.7577 22.1075L72.271 23.0338L72.2835 23.0402L72.7577 22.1075ZM68.7152 22.1075L68.2285 21.1813L68.222 21.1848L68.7152 22.1075ZM67.3776 23.46L66.4544 22.9676L66.4544 22.9676L67.3776 23.46ZM66.902 25.6299V26.6762H67.9483V25.6299H66.902ZM59.0548 25.6299H58.0085V26.6762H59.0548V25.6299ZM60.4964 20.1011L59.6079 19.5486L59.6079 19.5487L60.4964 20.1011ZM64.5687 16.5342L65.0173 17.4795L65.0173 17.4795L64.5687 16.5342ZM77.0677 16.4599L76.6472 17.418L76.6537 17.4208L77.0677 16.4599ZM81.2143 19.7296L80.3532 20.3239L80.356 20.328L81.2143 19.7296ZM81.9574 28.1713L82.9212 28.5784L82.9225 28.5755L81.9574 28.1713ZM79.3417 31.9909L80.1191 32.6911L80.1191 32.6911L79.3417 31.9909ZM73.9764 36.9846L74.6462 37.7883L73.9764 36.9846ZM71.1229 39.3625L70.4531 38.5587L70.0766 38.8724V39.3625H71.1229ZM71.1229 39.5408H70.0766V40.5871H71.1229V39.5408ZM83.0126 39.5408H84.0589V38.4946H83.0126V39.5408ZM83.0126 46.1396V47.1859H84.0589V46.1396H83.0126ZM60.6956 46.1396V40.1948H58.603V46.1396H60.6956ZM60.3162 41.001L71.6709 31.6081L70.3371 29.9957L58.9824 39.3886L60.3162 41.001ZM71.6717 31.6074C72.445 30.9664 73.1168 30.3575 73.6827 29.7812L72.1895 28.3151C71.6853 28.8287 71.069 29.389 70.3362 29.9964L71.6717 31.6074ZM73.6825 29.7813C74.291 29.1618 74.7784 28.5026 75.1235 27.8006L73.2455 26.8775C73.0159 27.3446 72.671 27.8248 72.1896 28.315L73.6825 29.7813ZM75.1171 27.8132C75.4955 27.0691 75.6766 26.2555 75.6766 25.3921H73.5841C73.5841 25.9554 73.468 26.4397 73.2518 26.8648L75.1171 27.8132ZM75.6766 25.3921C75.6766 24.4574 75.4744 23.592 75.0194 22.8427L73.2307 23.9287C73.4495 24.289 73.5841 24.7612 73.5841 25.3921H75.6766ZM75.0265 22.8545C74.5963 22.1245 73.9908 21.5607 73.2319 21.1749L72.2835 23.0402C72.6938 23.2488 72.9998 23.5371 73.2236 23.9169L75.0265 22.8545ZM73.2444 21.1813C72.4879 20.7838 71.6425 20.6005 70.7365 20.6005V22.6931C71.3563 22.6931 71.8584 22.8169 72.2711 23.0338L73.2444 21.1813ZM70.7365 20.6005C69.8305 20.6005 68.985 20.7838 68.2285 21.1813L69.2019 23.0338C69.6146 22.8169 70.1166 22.6931 70.7365 22.6931V20.6005ZM68.222 21.1848C67.4581 21.5931 66.8655 22.1968 66.4544 22.9676L68.3008 23.9524C68.5239 23.5342 68.823 23.2363 69.2084 23.0303L68.222 21.1848ZM66.4544 22.9676C66.0379 23.7485 65.8557 24.6505 65.8557 25.6299H67.9483C67.9483 24.905 68.0832 24.3604 68.3008 23.9524L66.4544 22.9676ZM66.902 24.5836H59.0548V26.6762H66.902V24.5836ZM60.1011 25.6299C60.1011 23.6502 60.544 22.0062 61.385 20.6536L59.6079 19.5487C58.5267 21.2874 58.0085 23.3293 58.0085 25.6299H60.1011ZM61.385 20.6536C62.233 19.2898 63.4322 18.2317 65.0173 17.4795L64.1201 15.589C62.1977 16.5013 60.6821 17.8211 59.6079 19.5486L61.385 20.6536ZM65.0173 17.4795C66.604 16.7265 68.5008 16.3321 70.7365 16.3321V14.2395C68.2559 14.2395 66.0408 14.6774 64.1201 15.589L65.0173 17.4795ZM70.7365 16.3321C73.0644 16.3321 75.0252 16.7061 76.6473 17.418L77.4882 15.5018C75.5434 14.6482 73.2834 14.2395 70.7365 14.2395V16.3321ZM76.6537 17.4208C78.2929 18.1272 79.509 19.1007 80.3532 20.3239L82.0754 19.1353C80.9776 17.5445 79.4294 16.3383 77.4818 15.499L76.6537 17.4208ZM80.356 20.328C81.2019 21.5413 81.6393 22.9771 81.6393 24.6787H83.7319C83.7319 22.5954 83.1885 20.7318 82.0726 19.1312L80.356 20.328ZM81.6393 24.6787C81.6393 25.6989 81.4283 26.7262 80.9923 27.7671L82.9225 28.5755C83.4575 27.2979 83.7319 25.9968 83.7319 24.6787H81.6393ZM80.9936 27.7642C80.5703 28.7662 79.78 29.9408 78.5642 31.2906L80.1191 32.6911C81.42 31.2468 82.3735 29.875 82.9212 28.5784L80.9936 27.7642ZM78.5642 31.2906C77.353 32.6354 75.6067 34.264 73.3066 36.1808L74.6462 37.7883C76.9831 35.841 78.8137 34.1405 80.1191 32.6911L78.5642 31.2906ZM73.3066 36.1808L70.4531 38.5587L71.7927 40.1663L74.6462 37.7883L73.3066 36.1808ZM70.0766 39.3625V39.5408H72.1692V39.3625H70.0766ZM71.1229 40.5871H83.0126V38.4946H71.1229V40.5871ZM81.9663 39.5408V46.1396H84.0589V39.5408H81.9663ZM83.0126 45.0934H59.6493V47.1859H83.0126V45.0934ZM92.6656 45.3222L92.2271 46.2722L92.2334 46.2751L92.6656 45.3222ZM88.4001 41.8891L87.546 42.4934L87.5487 42.4972L88.4001 41.8891ZM86.8248 36.8657V35.8194H85.7675L85.7785 36.8766L86.8248 36.8657ZM94.8503 36.8657L95.8962 36.8361L95.8674 35.8194H94.8503V36.8657ZM96.069 39.3774L95.4167 40.1954L95.4217 40.1994L96.069 39.3774ZM101.122 39.7786L101.629 40.694L101.64 40.6879L101.122 39.7786ZM102.638 38.233L101.722 37.7272L101.722 37.7272L102.638 38.233ZM103.173 35.9145L102.127 35.9029L102.127 35.9145L102.127 35.9262L103.173 35.9145ZM102.638 33.596L101.722 34.1018L101.725 34.1076L102.638 33.596ZM101.122 32.0652L100.605 32.9745L100.615 32.9805L101.122 32.0652ZM96.4703 32.1544L96.9868 33.0643L96.9907 33.062L96.4703 32.1544ZM94.8503 33.8932L94.6484 34.9198L95.4521 35.078L95.7985 34.3357L94.8503 33.8932ZM87.5976 32.4665L86.5539 32.3924L86.4885 33.3146L87.3956 33.4931L87.5976 32.4665ZM88.7866 15.7019V14.6556H87.8118L87.7429 15.6279L88.7866 15.7019ZM109.237 15.7019H110.283V14.6556H109.237V15.7019ZM109.237 22.3007V23.347H110.283V22.3007H109.237ZM95.5637 22.3007V21.2544H94.6059L94.5215 22.2085L95.5637 22.3007ZM94.9692 29.0184L93.927 28.9262L93.8262 30.0647H94.9692V29.0184ZM95.1476 29.0184V30.0647H95.785L96.0773 29.4983L95.1476 29.0184ZM97.6147 26.7297L98.0952 27.6591L98.1014 27.6559L97.6147 26.7297ZM106.532 27.0715L105.997 27.9709L106 27.9725L106.532 27.0715ZM109.906 30.5641L108.99 31.0707L108.994 31.0779L109.906 30.5641ZM111.139 35.6767L110.093 35.6713L110.093 35.6816L111.139 35.6767ZM109.623 41.3243L108.734 40.7727L108.733 40.7741L109.623 41.3243ZM105.358 45.1736L105.828 46.1084L105.832 46.1064L105.358 45.1736ZM98.8928 45.5095C96.6778 45.5095 94.7536 45.1203 93.0978 44.3694L92.2334 46.2751C94.204 47.1689 96.4312 47.6021 98.8928 47.6021V45.5095ZM93.104 44.3722C91.4473 43.6076 90.175 42.5738 89.2516 41.2809L87.5487 42.4972C88.706 44.1173 90.2774 45.3723 92.2271 46.2722L93.104 44.3722ZM89.2543 41.2848C88.3544 40.0128 87.8887 38.5481 87.871 36.8547L85.7785 36.8766C85.8004 38.9681 86.385 40.8524 87.546 42.4934L89.2543 41.2848ZM86.8248 37.912H94.8503V35.8194H86.8248V37.912ZM93.8045 36.8953C93.8424 38.236 94.3798 39.3685 95.4167 40.1954L96.7214 38.5593C96.1928 38.1378 95.9177 37.5958 95.8962 36.8361L93.8045 36.8953ZM95.4217 40.1994C96.414 40.9808 97.5882 41.36 98.8928 41.36V39.2674C98.0177 39.2674 97.3093 39.0223 96.7164 38.5554L95.4217 40.1994ZM98.8928 41.36C99.8865 41.36 100.809 41.1483 101.629 40.6939L100.615 38.8634C100.147 39.1224 99.5835 39.2674 98.8928 39.2674V41.36ZM101.64 40.6879C102.455 40.2238 103.097 39.5671 103.554 38.7388L101.722 37.7272C101.446 38.2266 101.077 38.6003 100.605 38.8693L101.64 40.6879ZM103.554 38.7388C104.021 37.8924 104.231 36.9357 104.219 35.9027L102.127 35.9262C102.135 36.6569 101.988 37.2458 101.722 37.7272L103.554 38.7388ZM104.219 35.9261C104.231 34.8861 104.023 33.9259 103.551 33.0843L101.725 34.1076C101.987 34.574 102.135 35.1594 102.127 35.9029L104.219 35.9261ZM103.554 33.0902C103.095 32.2596 102.451 31.6049 101.629 31.1499L100.615 32.9805C101.082 33.2389 101.448 33.6047 101.722 34.1018L103.554 33.0902ZM101.64 31.1559C100.817 30.6878 99.8913 30.469 98.8928 30.469V32.5616C99.5787 32.5616 100.139 32.7093 100.605 32.9745L101.64 31.1559ZM98.8928 30.469C97.8418 30.469 96.8544 30.7281 95.9499 31.2467L96.9907 33.062C97.5725 32.7285 98.2001 32.5616 98.8928 32.5616V30.469ZM95.9538 31.2444C95.0374 31.7646 94.3436 32.505 93.9022 33.4508L95.7985 34.3357C96.0507 33.7953 96.4368 33.3764 96.9868 33.0643L95.9538 31.2444ZM95.0523 32.8666L87.7996 31.4398L87.3956 33.4931L94.6484 34.9198L95.0523 32.8666ZM88.6413 32.5405L89.8302 15.776L87.7429 15.6279L86.5539 32.3924L88.6413 32.5405ZM88.7866 16.7482H109.237V14.6556H88.7866V16.7482ZM108.191 15.7019V22.3007H110.283V15.7019H108.191ZM109.237 21.2544H95.5637V23.347H109.237V21.2544ZM94.5215 22.2085L93.927 28.9262L96.0114 29.1107L96.6059 22.393L94.5215 22.2085ZM94.9692 30.0647H95.1476V27.9721H94.9692V30.0647ZM96.0773 29.4983C96.4295 28.8159 97.0667 28.1908 98.0952 27.6591L97.1342 25.8002C95.8244 26.4773 94.8168 27.378 94.2178 28.5386L96.0773 29.4983ZM98.1014 27.6559C99.0968 27.1329 100.282 26.8545 101.687 26.8545V24.7619C100.001 24.7619 98.4709 25.0978 97.128 25.8034L98.1014 27.6559ZM101.687 26.8545C103.331 26.8545 104.758 27.2343 105.997 27.9709L107.067 26.1721C105.472 25.2243 103.669 24.7619 101.687 24.7619V26.8545ZM106 27.9725C107.262 28.7173 108.256 29.7435 108.99 31.0707L110.821 30.0575C109.911 28.4123 108.656 27.11 107.064 26.1705L106 27.9725ZM108.994 31.0779C109.725 32.3747 110.102 33.8952 110.093 35.6713L112.186 35.6821C112.196 33.594 111.751 31.7061 110.817 30.0503L108.994 31.0779ZM110.093 35.6816C110.102 37.6248 109.641 39.3108 108.734 40.7727L110.512 41.876C111.646 40.0484 112.196 37.9693 112.186 35.6718L110.093 35.6816ZM108.733 40.7741C107.831 42.2342 106.558 43.3901 104.884 44.2408L105.832 46.1064C107.824 45.0944 109.395 43.6841 110.513 41.8745L108.733 40.7741ZM104.888 44.2388C103.228 45.0733 101.24 45.5095 98.8928 45.5095V47.6021C101.5 47.6021 103.822 47.1169 105.828 46.1084L104.888 44.2388Z" fill="#B3A5AE" mask="url(#path-11-outside-1_203_5091)"/>
<defs>
<filter id="filter0_bf_203_5091" x="45.2205" y="22.3324" width="63.8734" height="67.2481" filterUnits="userSpaceOnUse" color-interpolation-filters="sRGB">
<feFlood flood-opacity="0" result="BackgroundImageFix"/>
<feGaussianBlur in="BackgroundImageFix" stdDeviation="12.176"/>
<feComposite in2="SourceAlpha" operator="in" result="effect1_backgroundBlur_203_5091"/>
<feBlend mode="normal" in="SourceGraphic" in2="effect1_backgroundBlur_203_5091" result="shape"/>
<feGaussianBlur stdDeviation="6.39457" result="effect2_foregroundBlur_203_5091"/>
</filter>
</defs>
</svg>
