<svg width="44" height="44" viewBox="0 0 44 44" fill="none" xmlns="http://www.w3.org/2000/svg">
<path d="M22 4.66455C11.2919 4.66455 2.57812 13.3784 2.57812 24.0864C2.57812 28.1997 3.86504 32.0179 6.05559 35.1617L8.61566 33.455C7.13857 31.3457 6.14857 28.8692 5.80585 26.1867H8.25V24.6398H5.68176C5.67574 24.4559 5.67188 24.2716 5.67188 24.0863C5.67188 20.1867 7.03106 16.6124 9.30153 13.8084L10.7968 15.3037L11.8906 14.21L10.3323 12.6518C13.1257 9.80164 16.9585 7.97486 21.2266 7.77704V10.2881H22.7734V7.77721C27.0415 7.97504 30.8743 9.8019 33.6677 12.652L32.1094 14.2102L33.2031 15.304L34.6984 13.8086C36.9689 16.6128 38.3281 20.1869 38.3281 24.0868C38.3281 24.2719 38.3243 24.4563 38.3182 24.64H35.75V26.1868H38.1941C37.8514 28.8693 36.8614 31.3457 35.3844 33.455L37.9445 35.1617C40.135 32.0179 41.4219 28.1999 41.4219 24.0866C41.4219 13.3786 32.7081 4.66472 22 4.66472V4.66455ZM23.3604 10.3562C24.911 11.2115 26.2828 12.4188 27.3872 13.9C28.4916 15.3812 29.3041 17.1034 29.772 18.9553L34.066 17.4455C33.948 17.2415 33.8248 17.0406 33.6964 16.8429L33.2551 17.2858L30.6454 14.6827L30.1504 14.1889L30.825 13.5122C28.7104 11.7341 26.1091 10.6343 23.3603 10.3561L23.3604 10.3562ZM36.7795 18.0772L21.7119 23.285C20.6684 23.428 19.8516 24.3335 19.8516 25.4133C19.8516 26.5906 20.8227 27.5617 22 27.5617C22.5818 27.5617 23.1129 27.3242 23.5016 26.9423L36.7795 18.0772ZM35.3604 20.8548L30.1429 24.3542C29.9373 26.1896 29.4006 27.96 28.5648 29.5596C27.729 31.1591 26.6114 32.5548 25.2789 33.6632H31.815C33.4303 32.0166 34.6054 29.9901 35.2321 27.7703H34.2444V23.2573H35.7072C35.6627 22.4478 35.5466 21.6439 35.3604 20.8548ZM11 36.2414V39.3352H33V36.2414H11Z" fill="white"/>
</svg>
