<svg width="65" height="45" viewBox="0 0 65 45" fill="none" xmlns="http://www.w3.org/2000/svg">
<path d="M19.2843 0.969238C23.9613 5.12541 27.4614 6.50231 27.9867 9.97967C21.9328 6.13117 17.9529 5.20843 11.7407 6.61861C16.4168 8.64118 20.0331 11.9297 19.9787 15.7267C14.4468 12.0335 8.98205 10.8954 2.5133 12.9539C8.89041 15.0796 10.6203 17.1724 8.68287 21.8397L11.2479 22.8022L10.8391 23.8917C16.0896 23.4456 22.785 22.5909 29.7055 21.5767L25.0609 15.3838L23.6055 13.4431H34.9921L44.6224 19.2212C44.9748 19.1622 45.3327 19.103 45.6817 19.0441C36.9939 7.53731 31.9244 3.38249 19.2843 0.969238ZM28.457 15.8689L33.028 21.9634L41.9888 20.47L34.3204 15.8689H28.457ZM61.3388 18.7183C55.198 19.882 45.6388 21.578 35.6511 23.1319C26.2745 24.5904 16.8065 25.8827 9.89832 26.3991L8.69891 29.596L13.7426 37.1619H45.4375C48.9414 37.1619 53.7397 33.1949 57.4176 28.4661C59.2566 26.1017 60.84 23.593 61.9463 21.4454L61.9778 21.3823C51.5987 29.8294 33.1628 32.7404 14.0816 32.7404V30.3146C33.5164 30.3146 52.01 26.936 61.3388 18.718V18.7183ZM0.425781 19.2499V24.84C0.57015 24.5571 0.727084 24.2809 0.896113 24.012C1.89513 22.4319 3.39831 21.1779 5.37262 20.8158C3.56892 20.1605 1.91588 19.622 0.425781 19.2498V19.2499ZM5.5869 23.2689C4.46107 23.5384 3.6452 24.2034 2.94657 25.3083C2.19121 26.5031 1.64703 28.1818 1.29232 30.0273C0.67685 33.2279 0.613105 36.6941 0.48427 39.318H1.57452L4.78868 33.1121L8.12454 24.2212L5.5869 23.2688V23.2689ZM7.64922 32.3943L7.00935 34.0996L5.42343 37.1619H10.8275L7.64922 32.3943ZM4.16714 39.5877L3.05034 41.7439H0.425781V44.574H64.5742V39.5877H4.16714Z" fill="white"/>
</svg>
