<svg width="69" height="69" viewBox="0 0 69 69" fill="none" xmlns="http://www.w3.org/2000/svg">
<path d="M43.9881 3.57387C43.8938 3.57387 43.759 3.59273 43.5973 3.63316C43.1391 3.74367 42.5192 4.08867 42.0205 4.5617C41.5084 5.03473 41.1176 5.62904 40.9559 6.08994C40.8077 6.54949 40.8481 6.75299 41.0233 6.97535C44.7159 11.5264 48.1119 16.6839 50.7129 21.2255C53.3139 25.7805 55.1198 29.6079 55.6454 31.9932C55.6993 32.2358 55.7397 32.2628 55.7397 32.2493C55.9014 32.2493 56.5079 32.0202 57.0739 31.5485C57.6534 31.0768 58.2329 30.3895 58.5698 29.7561C58.9202 29.1227 58.9875 28.5702 58.9202 28.3546C56.8852 20.902 53.1791 12.6665 44.3789 3.75041C44.2846 3.66012 44.2038 3.60352 44.0825 3.5833C44.0555 3.5833 44.0286 3.56982 43.9881 3.56982V3.57387ZM51.1577 7.74756C52.6401 9.6235 53.9338 11.4752 55.0524 13.2959C56.8043 14.2716 58.8932 15.4979 60.9686 16.8052C63.017 18.072 64.9307 19.3522 66.4805 20.4977L66.2379 16.6973C64.0278 14.5007 60.1735 12.176 56.2518 10.1868C54.4864 9.29062 52.7748 8.48742 51.1577 7.74756ZM33.3012 14.2581C33.2069 14.2581 33.0721 14.2716 32.9104 14.312C32.4522 14.4198 31.8457 14.7702 31.3336 15.2419C30.835 15.7136 30.4442 16.3065 30.2959 16.7647C30.1477 17.2095 30.1746 17.4116 30.3633 17.6407C34.0559 22.1958 37.452 27.3438 40.053 31.8854C42.6539 36.4405 44.4463 40.2813 44.9854 42.6397V42.6532C45.0393 42.8958 45.0797 42.9227 45.0797 42.9093C45.228 42.9093 45.8344 42.6802 46.4139 42.2085C46.9934 41.7368 47.5594 41.0495 47.9098 40.4161C48.2467 39.7827 48.3141 39.2167 48.2602 39.0145C46.1983 31.5755 42.4922 23.3548 33.692 14.4333C33.5977 14.3389 33.5168 14.285 33.3955 14.2716C33.3686 14.2581 33.3416 14.2581 33.3012 14.2581ZM40.4573 18.4223C41.9532 20.3091 43.2469 22.1688 44.3789 23.9882C46.1309 24.972 48.2198 26.1983 50.2952 27.4921C50.7668 27.7886 51.2385 28.085 51.6967 28.3815C50.9151 26.67 49.8639 24.6485 48.6375 22.4923C47.6403 21.9262 46.6161 21.3872 45.5784 20.8616C43.7995 19.9721 42.0879 19.1636 40.4573 18.4223ZM23.4094 26.1175C23.3151 26.1175 23.1803 26.1309 23.0186 26.1714C22.5604 26.2792 21.9405 26.6296 21.4418 27.1012C20.9297 27.5729 20.5389 28.1659 20.3772 28.6241C20.2289 29.0823 20.2694 29.2845 20.4446 29.5001C24.1371 34.0417 27.5332 39.1897 30.1342 43.7448C32.7352 48.2999 34.5411 52.1272 35.0666 54.5126C35.1205 54.7552 35.161 54.7821 35.161 54.7686C35.3092 54.7686 35.9291 54.5395 36.4952 54.0679C37.0746 53.5962 37.6541 52.9089 37.9911 52.2755C38.3414 51.6286 38.4088 51.0761 38.3414 50.8604C36.293 43.4348 32.6004 35.2141 23.8002 26.2792C23.7059 26.1983 23.625 26.1444 23.5037 26.1175H23.4094ZM30.5655 30.2817C32.0614 32.155 33.3416 34.0147 34.4737 35.8341C36.2256 36.8178 38.3145 38.0442 40.3899 39.338C40.7537 39.5671 41.1176 39.7962 41.468 40.0118C40.7672 38.4081 39.7834 36.427 38.5975 34.2843C37.6407 33.7452 36.6569 33.2196 35.6596 32.721C33.8942 31.818 32.1827 31.0229 30.5655 30.2817ZM12.736 36.7774C12.6322 36.7774 12.5055 36.8044 12.3357 36.8448C11.8856 36.9526 11.2697 37.2895 10.763 37.7612C10.2563 38.2329 9.86277 38.8259 9.71318 39.2841C9.56494 39.7423 9.59729 39.9444 9.77787 40.16C13.4745 44.7151 16.8733 49.8632 19.4743 54.4048C22.0752 58.9598 23.8811 62.7872 24.4067 65.1591V65.1725C24.4606 65.4151 24.501 65.4421 24.501 65.4286C24.6627 65.4286 25.2692 65.1995 25.8352 64.7278C26.4147 64.2561 26.9942 63.5688 27.3311 62.9354C27.6815 62.302 27.7489 61.7495 27.6815 61.5339C25.6196 54.1083 21.927 45.8876 13.1241 36.9526C13.0298 36.8718 12.9489 36.8044 12.8317 36.7909C12.802 36.7774 12.7697 36.7774 12.736 36.7774ZM19.892 40.9417C21.3879 42.8284 22.6817 44.6882 23.8002 46.5075C25.5522 47.4913 27.6411 48.7177 29.7164 50.0114C30.1881 50.3079 30.6598 50.6044 31.118 50.9009C30.3364 49.1893 29.2987 47.1679 28.0723 45.0116C27.075 44.4591 26.0373 43.9065 24.9996 43.3809C23.2342 42.4915 21.5227 41.6829 19.892 40.9417ZM2.52344 47.5722C2.56926 47.8552 2.66225 48.219 2.91156 48.7042C3.68647 50.227 5.619 52.4507 9.21051 54.4452C12.4301 56.2376 15.5256 58.2725 20.6737 62.046C19.8651 60.2266 18.733 57.9895 17.3719 55.6177L17.3315 55.5368C12.519 52.2889 6.21332 49.3241 2.52344 47.5722Z" fill="white"/>
</svg>
