<svg width="26" height="21" viewBox="0 0 26 21" fill="none" xmlns="http://www.w3.org/2000/svg">
<path d="M13.0004 14.2889C10.4112 14.2889 8.30957 12.5914 8.30957 10.5002C8.30957 8.40893 10.4112 6.71143 13.0004 6.71143C15.5896 6.71143 17.6912 8.40893 17.6912 10.5002C17.6912 12.5914 15.5896 14.2889 13.0004 14.2889ZM13.0004 8.02393C11.3104 8.02393 9.93457 9.13518 9.93457 10.5002C9.93457 11.8652 11.3104 12.9764 13.0004 12.9764C14.6904 12.9764 16.0662 11.8652 16.0662 10.5002C16.0662 9.13518 14.6904 8.02393 13.0004 8.02393Z" fill="white"/>
<path d="M12.9999 18.3924C8.92659 18.3924 5.08075 16.4674 2.43742 13.1249C1.28909 11.6812 1.28909 9.32742 2.43742 7.87492C5.09159 4.53242 8.93742 2.60742 12.9999 2.60742C17.0624 2.60742 20.9083 4.53242 23.5516 7.87492C24.6999 9.31867 24.6999 11.6724 23.5516 13.1249C20.9083 16.4674 17.0624 18.3924 12.9999 18.3924ZM12.9999 3.91992C9.50075 3.91992 6.15326 5.61742 3.81326 8.58367C3.00076 9.60742 3.00076 11.3924 3.81326 12.4162C6.15326 15.3824 9.50075 17.0799 12.9999 17.0799C16.4991 17.0799 19.8466 15.3824 22.1866 12.4162C22.9991 11.3924 22.9991 9.60742 22.1866 8.58367C19.8466 5.61742 16.4991 3.91992 12.9999 3.91992Z" fill="white"/>
</svg>
